<?xml version="1.0" standalone="no"?>
<!DOCTYPE svg PUBLIC "-//W3C//DTD SVG 20010904//EN"
 "http://www.w3.org/TR/2001/REC-SVG-20010904/DTD/svg10.dtd">
<svg version="1.0" xmlns="http://www.w3.org/2000/svg"
 width="1280.000000pt" height="1229.000000pt" viewBox="0 0 1280.000000 1229.000000"
 preserveAspectRatio="xMidYMid meet">
<metadata>
Created by potrace 1.15, written by Peter Selinger 2001-2017
</metadata>
<g transform="translate(0.000000,1229.000000) scale(0.100000,-0.100000)"
fill="#000000" stroke="none">
<path d="M5494 12281 c-126 -15 -177 -30 -279 -81 -64 -32 -122 -53 -160 -59
-86 -13 -172 -50 -352 -153 -287 -163 -486 -256 -1076 -502 -599 -251 -604
-253 -722 -315 -146 -78 -273 -155 -425 -259 -181 -123 -247 -178 -410 -337
-170 -166 -259 -241 -470 -397 -355 -263 -575 -473 -698 -669 -23 -36 -84
-157 -136 -270 -51 -112 -158 -337 -236 -499 -278 -576 -382 -839 -454 -1150
-91 -393 -99 -870 -20 -1220 109 -481 384 -800 805 -934 122 -39 232 -59 444
-81 227 -23 329 -45 309 -65 -17 -17 -127 -40 -310 -65 -240 -34 -344 -62
-344 -94 0 -12 52 -82 89 -119 85 -84 247 -187 351 -222 88 -30 229 -43 375
-36 72 3 330 26 575 51 245 25 452 45 461 45 12 0 18 -21 28 -92 41 -297 79
-366 343 -624 239 -233 333 -291 587 -363 179 -51 264 -95 361 -187 91 -87
157 -125 273 -158 185 -54 414 -54 620 -2 136 35 194 60 314 133 313 191 556
324 568 311 1 -1 33 -59 70 -128 107 -199 222 -348 430 -555 135 -135 256
-230 355 -280 97 -49 145 -109 185 -235 68 -213 448 -783 995 -1490 256 -331
371 -496 520 -745 191 -319 307 -426 465 -428 73 -2 246 28 286 48 90 47 203
141 241 203 17 28 21 49 20 121 0 47 -8 119 -16 159 -25 118 -102 333 -193
542 -47 107 -92 212 -99 234 -15 42 -18 94 -6 112 4 6 49 37 99 68 234 144
475 338 549 442 89 125 213 209 593 403 407 208 539 306 616 461 56 113 196
356 307 533 127 202 212 355 243 437 101 266 179 986 137 1255 -15 90 -14 289
1 339 7 21 24 48 39 59 25 19 32 19 110 9 112 -16 182 -15 253 4 174 45 353
213 446 421 120 267 249 842 249 1114 0 36 -9 110 -21 165 -17 80 -21 139 -23
304 l-1 205 -42 120 c-94 276 -374 881 -502 1085 -114 181 -216 282 -300 295
-62 10 -85 27 -94 70 -30 146 -95 281 -205 428 -40 53 -133 152 -216 231 -156
147 -236 239 -331 376 -84 122 -146 192 -239 266 -88 71 -192 126 -271 146
-68 16 -90 38 -121 122 -42 112 -69 159 -125 220 -119 130 -258 201 -435 222
-62 7 -140 23 -175 34 -166 56 -347 166 -579 354 -174 140 -284 200 -402 218
-89 13 -156 5 -298 -39 -121 -36 -208 -30 -400 31 -273 85 -386 102 -750 111
-403 10 -762 38 -885 71 -72 18 -102 38 -125 83 -24 47 -93 111 -150 139 -25
12 -81 28 -125 37 -93 19 -386 28 -491 16z m484 -70 c174 -43 252 -115 252
-231 0 -70 -63 -256 -171 -506 -253 -586 -310 -755 -355 -1054 -8 -53 -18
-248 -24 -445 -6 -207 -16 -397 -26 -465 -17 -130 -72 -353 -134 -545 -151
-471 -186 -639 -205 -965 -15 -262 -25 -309 -77 -336 -35 -18 -101 -11 -147
17 -44 27 -65 77 -94 224 -24 120 -57 241 -123 455 -34 109 -39 257 -11 337
24 69 93 144 173 189 35 20 64 40 64 45 0 5 -16 9 -35 9 -107 0 -238 -149
-294 -334 -39 -127 -26 -197 78 -429 101 -225 113 -265 112 -362 -1 -121 -53
-216 -230 -417 -135 -153 -450 -463 -514 -507 -114 -78 -194 -90 -285 -45 -42
21 -58 36 -77 74 -69 136 -159 605 -186 964 -8 110 -8 185 1 291 8 104 9 149
1 164 -11 20 -11 20 -56 -4 -36 -18 -52 -22 -75 -15 -37 11 -37 11 -6 -110 13
-52 31 -156 41 -230 20 -167 54 -370 100 -605 42 -216 50 -272 41 -318 -12
-64 -116 -171 -166 -169 -15 0 -63 21 -107 46 -135 78 -369 126 -621 127 -135
0 -211 -13 -219 -38 -7 -19 31 -25 247 -33 300 -12 404 -31 540 -98 108 -53
185 -133 245 -255 67 -134 67 -132 -99 -310 -74 -78 -151 -159 -173 -179 l-39
-38 -1099 -14 -1100 -14 -88 86 c-126 125 -186 241 -217 424 -23 137 5 308 50
308 10 0 35 -21 55 -47 46 -57 65 -74 77 -67 13 8 -1 52 -53 162 -64 134 -79
192 -86 337 -14 300 88 637 236 773 77 72 216 122 335 122 80 0 123 -19 132
-58 23 -104 90 -265 225 -537 104 -211 198 -376 217 -383 23 -7 -30 124 -165
412 -160 342 -223 551 -223 735 1 91 11 138 52 243 34 87 30 111 -15 91 -48
-22 -87 -159 -87 -308 0 -80 -18 -121 -57 -129 -16 -2 -68 -8 -118 -12 -166
-12 -282 -66 -383 -179 -101 -114 -170 -281 -221 -534 -46 -228 -50 -234 -163
-250 -99 -14 -155 -44 -193 -104 -22 -34 -9 -53 30 -43 17 4 30 17 37 37 14
40 59 59 137 59 79 0 139 -24 148 -58 9 -38 -4 -319 -22 -461 -25 -200 -51
-240 -207 -324 -125 -68 -116 -68 -175 15 -57 83 -117 198 -159 308 -35 94
-54 124 -67 111 -24 -24 43 -187 157 -385 98 -168 133 -249 145 -341 25 -184
128 -244 536 -311 322 -53 335 -60 414 -243 28 -66 51 -123 51 -127 0 -11
-306 5 -411 22 -259 41 -490 160 -631 326 -199 235 -321 574 -349 974 -24 336
20 784 101 1034 108 332 380 936 522 1163 68 108 109 199 148 327 87 284 221
439 685 795 299 229 383 301 550 470 209 212 228 226 640 470 320 189 464 258
1045 498 419 173 667 289 935 437 49 27 128 62 175 77 74 24 101 28 205 27
105 0 127 -3 175 -24 119 -52 172 -122 172 -228 -1 -95 -36 -169 -134 -284
-84 -98 -155 -133 -313 -157 -38 -6 -248 -24 -465 -41 -785 -60 -949 -91
-1142 -215 -98 -64 -151 -117 -313 -310 -281 -336 -341 -392 -860 -790 -553
-425 -685 -535 -820 -686 -124 -137 -181 -249 -226 -438 -17 -69 -39 -146 -50
-170 -33 -74 -119 -170 -332 -369 -202 -189 -244 -233 -286 -302 -21 -34 -29
-90 -13 -90 12 0 53 47 105 121 56 80 153 171 233 219 139 82 224 164 300 290
41 69 68 148 109 318 42 178 109 290 277 460 101 103 199 183 563 462 736 565
900 710 1053 937 141 208 232 291 391 352 146 56 320 84 911 146 543 57 623
57 669 -2 25 -31 27 -99 10 -300 -23 -286 -61 -458 -142 -653 -120 -286 -274
-500 -747 -1040 -74 -85 -186 -216 -249 -290 -130 -155 -166 -190 -197 -190
-67 0 -111 161 -178 660 -57 413 -69 544 -69 735 0 201 7 244 74 465 51 166
55 236 19 275 -28 30 -76 31 -94 3 -8 -14 -5 -23 17 -46 37 -38 35 -79 -8
-226 -75 -254 -75 -396 0 -1306 19 -234 38 -444 41 -466 l6 -42 -64 -6 c-132
-14 -171 -26 -209 -65 -56 -56 -74 -115 -184 -591 -47 -200 -166 -399 -308
-512 -90 -71 -145 -49 -285 112 -40 47 -87 107 -104 133 l-31 48 21 22 c11 12
62 45 113 72 134 72 209 150 351 365 63 96 165 241 226 323 60 81 108 147 105
147 -2 0 -41 -33 -85 -72 -98 -89 -184 -194 -292 -358 -134 -203 -239 -309
-355 -359 -139 -60 -190 -20 -275 214 -23 61 -49 122 -58 136 -17 24 -18 24
-33 4 -44 -55 66 -306 225 -515 32 -41 114 -138 183 -215 68 -77 124 -144 124
-150 -1 -5 -50 -31 -109 -56 -161 -69 -242 -133 -322 -253 -87 -132 -116 -235
-116 -425 0 -123 -1 -133 -17 -126 -10 3 -61 21 -113 40 -196 68 -304 127
-446 245 -105 88 -149 116 -159 100 -17 -27 126 -179 230 -246 170 -108 453
-205 725 -248 134 -22 612 -55 600 -42 -3 2 -70 12 -150 20 -294 33 -497 74
-556 112 -65 43 -85 218 -40 347 32 88 75 156 156 241 84 89 146 130 325 217
348 170 459 319 550 744 76 354 101 430 162 487 59 55 136 56 299 2 199 -64
235 -103 344 -359 84 -199 182 -366 276 -470 l36 -40 -42 75 c-65 118 -134
268 -185 402 -63 166 -98 229 -172 310 -35 37 -63 77 -63 87 0 42 75 137 330
420 537 595 675 775 806 1046 107 222 150 383 179 670 30 291 56 403 114 486
107 151 251 419 251 466 0 25 -37 83 -144 222 -36 47 -68 98 -72 113 -8 38 16
73 59 87 108 36 474 37 615 2z m682 -292 c202 -21 420 -88 720 -219 268 -118
320 -131 320 -85 0 31 -38 51 -175 94 -174 54 -247 111 -195 153 49 40 237 17
554 -66 176 -46 260 -77 264 -97 6 -34 -268 -411 -321 -441 -16 -10 -89 -13
-279 -12 -142 1 -258 -1 -258 -5 0 -11 94 -59 160 -80 53 -18 86 -21 178 -20
62 1 115 -1 118 -4 13 -13 -8 -58 -49 -109 -56 -69 -191 -170 -315 -237 -143
-76 -246 -162 -332 -276 l-71 -95 -92 77 c-142 118 -261 185 -303 169 -25 -10
-3 -30 92 -83 254 -141 271 -217 117 -516 -60 -115 -134 -207 -167 -207 -10 0
-34 17 -52 37 -27 29 -41 37 -68 36 -41 -1 -82 -27 -102 -64 -15 -29 -20 -109
-6 -109 4 1 22 21 40 45 40 55 69 59 107 13 37 -43 29 -80 -36 -182 -151 -234
-239 -420 -239 -505 0 -36 9 -61 41 -116 85 -144 126 -268 154 -468 14 -90 17
-39 5 80 -14 150 -43 282 -86 402 -39 106 -42 151 -16 218 10 27 79 145 152
263 73 118 191 314 262 435 167 285 342 548 420 631 90 96 120 109 243 108
114 -1 198 -26 317 -95 171 -100 298 -231 374 -386 25 -50 52 -97 61 -105 15
-12 16 -9 9 32 -4 24 -18 71 -31 104 -38 93 -42 91 238 90 534 -3 895 -73
1116 -218 127 -84 199 -174 270 -344 23 -54 55 -114 71 -133 26 -31 29 -32 36
-15 4 11 -2 49 -16 95 -37 121 -37 129 -4 142 58 22 204 -19 367 -104 147 -76
197 -141 197 -254 0 -53 14 -62 30 -20 29 72 62 83 146 47 107 -46 485 -316
643 -459 114 -103 184 -190 233 -289 36 -72 42 -93 46 -166 3 -52 0 -98 -8
-122 -26 -82 -169 -270 -440 -579 -237 -272 -370 -439 -370 -467 0 -4 6 -8 13
-8 16 0 53 39 151 163 79 100 155 187 381 438 227 251 318 377 334 464 13 69
49 99 108 91 115 -16 276 -144 332 -267 17 -35 56 -170 88 -299 66 -268 72
-265 50 29 -14 180 -13 221 3 221 5 0 27 -21 51 -47 55 -63 120 -203 153 -332
37 -143 82 -253 197 -481 107 -213 132 -280 150 -399 21 -136 -9 -341 -107
-732 -137 -548 -249 -713 -524 -776 -65 -15 -130 -16 -505 -14 -479 3 -628 -5
-950 -50 -311 -43 -407 -40 -600 24 -235 78 -369 97 -542 78 -250 -28 -466
-103 -973 -336 -296 -137 -398 -177 -518 -208 -82 -21 -107 -22 -422 -21 -383
1 -432 9 -565 85 -190 109 -424 310 -464 399 -35 77 -29 106 33 166 70 68 148
119 219 144 60 21 235 39 383 40 52 0 87 5 99 14 18 13 16 15 -26 37 -40 22
-55 24 -174 23 -111 -1 -143 -5 -220 -28 -197 -59 -373 -173 -390 -251 -11
-52 -20 -60 -63 -57 -22 1 -96 22 -164 46 -235 83 -424 109 -723 97 l-160 -6
184 -18 c219 -21 317 -37 473 -77 234 -60 454 -155 505 -220 18 -22 18 -22
-34 -74 -131 -131 -518 -388 -848 -561 -266 -140 -365 -219 -365 -294 0 -52
119 -135 235 -166 146 -38 117 30 -34 80 -77 25 -121 57 -121 86 2 47 85 116
225 186 199 100 480 269 846 509 l186 122 198 -146 c168 -124 195 -147 181
-157 -9 -7 -66 -39 -127 -71 -184 -97 -361 -252 -642 -561 -288 -316 -461
-451 -661 -515 -88 -28 -292 -35 -413 -14 -199 34 -350 111 -484 245 -98 99
-144 180 -181 321 -12 47 -25 89 -30 94 -4 6 -8 -21 -8 -60 0 -123 -20 -287
-42 -351 -41 -117 -130 -186 -304 -234 -121 -33 -233 -25 -394 30 -217 73
-367 169 -551 351 -226 223 -282 367 -283 730 0 172 8 220 40 220 21 0 121
-76 141 -106 17 -27 91 -79 100 -71 9 10 -36 72 -112 156 -74 82 -95 121 -95
178 0 65 95 328 181 501 91 184 132 236 328 405 293 253 839 663 857 644 2 -2
-11 -45 -27 -97 -37 -113 -50 -220 -27 -220 37 0 66 59 79 162 17 139 83 252
284 495 187 224 349 367 448 394 78 21 113 -17 127 -137 15 -127 44 -203 132
-352 31 -50 61 -113 69 -139 12 -43 11 -52 -10 -107 -13 -37 -26 -106 -33
-176 -14 -150 -23 -183 -59 -225 -51 -58 -134 -82 -389 -115 -91 -12 -195 -28
-232 -36 -63 -14 -67 -17 -73 -47 -26 -123 -222 -362 -318 -388 -122 -32 -282
-138 -448 -297 -172 -165 -211 -235 -240 -435 -15 -106 -15 -414 0 -497 15
-83 30 -130 42 -130 5 0 8 133 6 313 -2 276 0 319 16 376 54 189 167 326 408
493 114 79 203 118 267 118 125 0 175 -57 328 -365 63 -126 132 -252 154 -280
66 -84 67 -87 44 -295 l-7 -55 21 19 c25 22 56 101 67 166 4 25 13 55 21 67
16 26 70 43 136 43 77 0 63 16 -29 35 -48 9 -104 24 -125 32 -61 24 -117 97
-202 264 -96 188 -136 255 -198 337 -73 96 -66 151 37 288 77 102 152 159 255
193 19 6 99 22 176 36 308 54 400 125 410 318 6 99 11 138 23 155 22 35 138
33 428 -9 78 -11 173 -19 210 -17 65 3 68 4 68 28 0 33 -41 46 -187 59 -131
12 -194 29 -298 81 -269 135 -454 414 -411 617 28 130 150 326 259 417 26 21
79 54 117 73 436 210 2035 477 2271 378 71 -29 53 -86 -73 -231 -164 -189
-182 -222 -183 -325 0 -110 59 -286 137 -407 54 -85 83 -152 83 -195 0 -34 -5
-41 -67 -86 -136 -100 -385 -233 -528 -282 -59 -20 -89 -24 -195 -24 -195 0
-213 15 -315 264 -63 154 -105 233 -171 320 -49 66 -128 121 -146 103 -14 -14
-1 -35 81 -138 131 -162 240 -423 241 -576 1 -170 -178 -502 -401 -746 -183
-198 -222 -247 -205 -250 24 -5 104 55 189 143 210 214 405 508 447 670 18 70
56 135 80 135 26 0 29 -7 45 -110 21 -143 70 -224 183 -302 144 -99 452 -253
566 -283 69 -17 110 -42 218 -132 96 -80 168 -159 168 -185 0 -30 -54 -76
-151 -130 -119 -66 -248 -96 -574 -134 -77 -8 -142 -18 -144 -20 -12 -12 356
-2 435 11 191 34 382 116 465 200 53 54 81 57 185 23 58 -19 91 -23 204 -23
204 0 396 48 605 151 135 66 231 137 278 206 50 73 85 178 59 178 -15 0 -58
-54 -90 -111 -95 -169 -297 -269 -622 -309 -110 -13 -387 -13 -470 1 -109 17
-143 39 -286 180 l-131 130 8 42 c85 442 104 567 89 596 -10 20 -33 -44 -65
-184 -72 -317 -101 -414 -123 -423 -43 -16 -356 124 -534 240 -112 73 -155
112 -182 167 -63 125 -49 142 166 212 179 58 332 137 628 325 358 226 454 241
547 84 23 -39 33 -38 33 3 0 98 49 160 220 277 196 135 316 248 491 465 192
239 327 468 433 738 86 216 139 282 277 344 43 20 79 40 79 44 0 5 -28 9 -63
9 -84 0 -150 -33 -220 -111 -65 -71 -94 -129 -153 -302 -56 -163 -121 -289
-234 -460 -120 -180 -201 -279 -355 -433 -147 -148 -233 -215 -355 -278 -168
-87 -406 -153 -518 -144 -44 4 -59 11 -90 41 -94 92 -162 290 -162 471 0 124
17 187 65 243 66 77 253 200 405 267 180 79 155 113 -40 55 -122 -36 -151 -34
-218 14 -72 52 -129 78 -188 84 -33 4 -60 13 -69 23 -30 33 -35 138 -26 517
10 384 3 557 -24 633 -14 42 -92 146 -102 137 -2 -3 3 -22 11 -43 56 -146 95
-510 66 -616 -21 -75 -51 -70 -221 37 -122 77 -212 125 -238 125 -26 0 21 -41
135 -115 146 -97 219 -175 261 -280 59 -146 68 -226 34 -293 -46 -90 -143
-130 -416 -172 -236 -36 -456 -78 -683 -131 -119 -27 -308 -70 -418 -94 -330
-72 -465 -128 -619 -257 -52 -43 -97 -78 -101 -78 -3 0 -4 66 -1 148 7 202 52
411 169 791 170 554 180 613 203 1201 22 576 28 605 235 1100 83 199 295 725
324 804 6 18 15 18 134 12 70 -4 170 -11 222 -17z m2172 -163 c74 -30 157 -87
298 -205 320 -267 413 -316 729 -382 115 -23 161 -38 221 -70 175 -94 346
-288 301 -343 -17 -20 -49 -25 -226 -35 -241 -14 -279 -39 -120 -80 22 -6 112
-18 200 -26 273 -26 378 -50 505 -116 138 -71 219 -159 316 -343 45 -86 53
-107 38 -103 -30 9 -390 74 -482 88 -46 6 -86 9 -89 5 -22 -22 104 -66 305
-105 81 -17 179 -39 217 -51 283 -88 506 -284 630 -553 18 -40 56 -148 85
-241 56 -185 97 -279 123 -284 22 -4 22 27 2 94 -8 27 -15 52 -15 57 0 15 47
6 105 -21 97 -46 165 -129 246 -297 181 -378 388 -852 446 -1021 31 -93 37
-122 37 -201 1 -73 -2 -96 -16 -109 -15 -15 -18 -15 -41 8 -50 50 -125 222
-189 433 -21 72 -50 154 -63 183 -44 97 -128 206 -260 337 -168 168 -313 265
-396 265 -38 0 -89 22 -112 47 -10 11 -26 43 -36 71 -10 27 -32 70 -49 94
-142 207 -611 581 -1034 824 -212 123 -353 184 -508 219 -130 30 -208 74 -307
174 -197 197 -399 256 -1013 296 -481 32 -512 41 -865 258 -99 61 -197 121
-217 134 l-38 23 282 363 c314 404 328 421 414 483 186 133 432 189 576 130z
m-4982 -4907 c36 -27 89 -61 118 -75 29 -15 55 -31 58 -36 9 -14 -78 -93 -173
-159 l-81 -57 -59 107 c-94 168 -97 192 -31 245 52 41 90 35 168 -25z m-3047
-481 c14 -18 37 -57 51 -86 90 -178 262 -253 651 -282 271 -20 671 -9 1140 31
404 34 522 21 519 -60 -4 -66 -49 -103 -150 -121 -86 -15 -1099 -32 -1524 -25
-663 11 -802 31 -887 129 -60 67 -92 211 -62 269 22 42 73 100 122 138 64 51
105 53 140 7z m1057 -649 c30 -14 95 -60 144 -102 170 -146 434 -243 729 -266
104 -9 113 -11 135 -37 29 -33 25 -70 -13 -124 -42 -61 -93 -82 -191 -81 -47
0 -113 5 -147 11 -198 36 -784 203 -894 256 -85 41 -111 70 -159 184 -38 91
-43 139 -16 162 27 25 47 27 207 25 138 -2 155 -5 205 -28z m1105 14 c36 -7
40 -12 43 -40 4 -43 -50 -170 -94 -221 -60 -70 -117 -75 -373 -31 -219 37
-360 93 -456 180 -90 83 -93 104 -18 120 48 10 845 3 898 -8z m6665 -268 c-13
-14 -109 -84 -214 -156 -490 -338 -796 -597 -955 -810 -117 -157 -243 -470
-290 -719 -11 -63 -27 -149 -35 -190 l-14 -75 -1 162 c-1 149 1 171 28 275 71
271 210 529 427 793 110 133 171 217 229 314 54 90 154 192 250 256 81 54 165
92 165 75 0 -4 -34 -38 -75 -75 -41 -37 -75 -74 -75 -82 0 -36 130 14 297 113
132 79 255 143 272 144 10 0 7 -8 -9 -25z m225 -25 c14 -23 -51 -104 -150
-187 -82 -68 -155 -116 -320 -207 -377 -210 -675 -478 -795 -716 -61 -120
-103 -250 -82 -250 19 0 62 59 102 140 67 133 114 195 254 336 154 153 243
222 460 350 206 123 325 206 461 323 118 102 199 161 221 161 25 0 27 -45 4
-91 -28 -54 -144 -168 -246 -240 -43 -32 -137 -90 -209 -129 -256 -143 -388
-243 -596 -450 -253 -252 -431 -507 -505 -725 -24 -70 -27 -95 -26 -192 2
-143 -12 -162 -92 -129 -53 22 -71 82 -70 231 0 133 18 236 66 380 67 202 193
418 313 539 198 198 893 716 1120 836 60 32 80 36 90 20z m1405 -11 c0 -45
-155 -264 -292 -413 -155 -168 -285 -264 -599 -443 -437 -250 -674 -418 -934
-661 -88 -83 -161 -149 -163 -148 -3 4 123 297 160 371 54 108 140 228 223
310 85 85 174 149 370 263 213 124 417 277 620 462 103 95 243 205 282 223 16
7 27 6 37 -2 47 -40 -99 -190 -419 -431 -199 -150 -310 -244 -357 -303 -36
-46 -49 -89 -30 -101 36 -22 378 252 707 564 181 172 274 253 334 291 49 31
61 35 61 18z m194 -23 c4 -20 1 -51 -7 -74 -18 -51 -110 -188 -190 -284 -34
-40 -96 -114 -139 -165 -199 -237 -159 -244 84 -15 196 185 288 257 302 234
17 -27 -109 -196 -239 -320 -309 -296 -775 -603 -1179 -778 -151 -66 -189 -85
-306 -157 -156 -95 -344 -268 -428 -393 -22 -34 -59 -100 -82 -147 -23 -50
-54 -97 -72 -112 l-32 -27 -18 22 c-13 16 -18 39 -18 80 0 47 7 72 40 136 97
194 414 553 643 728 76 58 423 268 684 413 81 46 189 113 238 150 125 93 298
270 514 526 102 119 188 217 192 217 4 0 10 -15 13 -34z m145 -90 c-14 -77
-54 -125 -81 -98 -12 12 19 116 55 187 l21 40 7 -40 c4 -22 3 -62 -2 -89z
m-1371 22 c22 -22 13 -48 -34 -98 -38 -41 -266 -226 -313 -255 -22 -13 135
189 204 263 52 57 108 102 126 102 3 0 10 -5 17 -12z m402 -69 c-225 -212
-417 -353 -675 -497 -152 -85 -297 -186 -371 -258 -72 -70 -159 -207 -254
-399 -99 -201 -131 -293 -129 -378 2 -69 -13 -107 -82 -208 -48 -71 -87 -167
-95 -233 -8 -71 -22 -113 -40 -120 -23 -9 -52 10 -70 46 -71 138 180 834 409
1133 68 88 226 261 289 316 114 99 581 469 648 513 111 74 229 127 320 147
146 30 147 29 50 -62z m-8745 -64 c49 -9 165 -36 259 -60 228 -59 348 -82 509
-99 74 -8 144 -20 156 -28 53 -33 29 -79 -52 -103 -171 -51 -1034 -117 -1236
-95 -158 17 -225 41 -320 114 -53 40 -151 148 -151 166 0 24 61 43 228 70 319
53 456 61 607 35z m6861 -30 c10 -25 -65 -149 -208 -343 -280 -380 -385 -551
-457 -742 -47 -125 -89 -220 -96 -220 -15 0 29 223 67 340 58 180 303 568 534
847 97 118 147 154 160 118z m2904 -124 c0 -11 -17 -41 -39 -68 -47 -58 -151
-161 -151 -149 0 5 29 53 65 107 77 116 125 158 125 110z m-3260 -40 c0 -37
-39 -110 -152 -288 -242 -379 -279 -470 -329 -818 -31 -216 -42 -229 -76 -85
-23 101 -23 296 0 407 51 239 167 464 329 639 128 136 228 200 228 145z m-368
-203 c-49 -68 -114 -160 -146 -205 -62 -87 -102 -130 -112 -120 -13 13 9 80
57 176 54 108 140 208 214 248 80 43 78 29 -13 -99z m1662 80 c-10 -12 -74
-83 -141 -158 -179 -199 -244 -281 -342 -425 -191 -284 -310 -557 -356 -816
-25 -144 -51 -213 -91 -249 -19 -16 -40 -30 -47 -30 -29 0 -78 43 -106 92 -85
148 -98 292 -42 458 39 116 151 335 170 335 9 0 21 -24 31 -64 19 -66 49 -109
70 -96 20 13 40 72 40 122 0 136 81 291 234 451 105 109 219 193 401 293 83
45 159 88 170 95 29 19 31 17 9 -8z m-1840 -15 c-121 -183 -154 -283 -272
-833 -14 -63 -14 -23 -2 162 13 185 42 394 66 466 9 29 14 55 10 59 -4 4 -21
0 -38 -10 -17 -10 -33 -15 -36 -12 -8 7 38 101 71 148 37 51 52 37 32 -29 -17
-56 -19 -74 -7 -74 5 0 48 34 97 75 49 41 91 75 93 75 3 0 -4 -12 -14 -27z
m-520 11 c24 -9 20 -34 -29 -162 -57 -149 -72 -216 -87 -380 -14 -158 -1 -346
33 -457 47 -157 52 -175 45 -183 -20 -19 -134 169 -199 328 -72 173 -82 231
-82 460 0 271 21 347 110 386 30 13 180 19 209 8z m186 -30 c0 -14 -24 -87
-54 -163 -62 -157 -81 -229 -97 -361 -25 -214 13 -399 141 -685 36 -82 72
-170 79 -195 7 -25 15 -53 17 -62 4 -12 0 -18 -10 -18 -49 0 -254 473 -307
709 -32 146 34 498 132 695 48 97 99 138 99 80z m-593 -166 c-4 -68 -10 -176
-13 -240 -12 -203 4 -249 239 -698 240 -458 264 -509 247 -520 -8 -5 -22 -10
-32 -10 -32 0 -203 241 -356 503 -137 235 -175 348 -193 581 -13 165 -7 322
16 386 20 58 63 120 83 120 13 0 14 -17 9 -122z m4469 -14 c-3 -9 -6 -19 -6
-24 0 -20 -86 -115 -141 -155 -34 -25 -109 -70 -169 -101 -116 -60 -179 -109
-163 -125 15 -15 90 5 228 61 67 28 125 50 128 50 4 0 -32 -37 -79 -82 -176
-170 -247 -204 -624 -303 -392 -103 -620 -201 -620 -266 0 -30 42 -24 155 26
276 120 893 285 1121 300 l79 5 -61 -18 c-33 -10 -123 -48 -200 -84 -152 -72
-179 -82 -460 -162 -335 -96 -396 -124 -743 -345 -328 -209 -477 -291 -495
-274 -14 14 -3 49 43 141 55 109 98 171 175 250 121 126 327 257 553 352 321
135 545 267 936 551 133 97 260 186 282 198 48 25 70 27 61 5z m274 -21 c0
-14 -38 -71 -84 -127 -86 -106 -64 -190 25 -96 62 65 80 47 31 -31 -70 -108
-235 -219 -328 -219 -25 0 -44 5 -47 13 -18 54 148 299 270 398 68 54 133 84
133 62z m-4144 -191 c-8 -213 -33 -503 -45 -515 -15 -15 -41 120 -41 217 0
196 52 476 88 476 3 0 2 -80 -2 -178z m-1037 -66 c13 -15 46 -144 39 -151 -9
-9 -141 49 -152 67 -12 20 10 49 59 79 36 23 39 23 54 5z m-46 -200 c89 -39
198 -120 284 -209 120 -126 368 -505 462 -709 55 -116 72 -173 77 -252 7 -97
34 -159 135 -312 109 -165 131 -207 159 -311 40 -151 147 -309 327 -484 161
-157 312 -265 542 -388 69 -37 150 -85 180 -106 123 -89 227 -264 366 -615 82
-208 138 -320 217 -438 107 -158 117 -242 30 -242 -42 0 -117 115 -192 295
-192 458 -393 855 -432 855 -21 0 5 -79 84 -250 170 -370 389 -884 391 -920 2
-22 -2 -25 -35 -28 -33 -3 -40 1 -68 39 -50 70 -114 194 -205 399 -197 444
-409 810 -471 810 -19 0 11 -78 61 -162 204 -333 509 -1048 467 -1090 -26 -26
-143 133 -404 549 -110 176 -273 405 -433 608 -540 687 -975 1352 -975 1489 0
58 10 69 54 61 29 -6 36 -4 36 8 0 25 -54 60 -225 144 -247 121 -373 211 -540
384 -120 125 -185 214 -245 334 -69 141 -86 197 -71 244 11 38 197 271 249
312 34 27 93 22 175 -15z m5161 -82 c-35 -108 -75 -180 -143 -256 -102 -115
-183 -178 -298 -230 -109 -49 -253 -71 -253 -38 0 13 47 47 190 136 170 106
238 159 246 192 11 44 50 88 167 186 62 52 113 93 115 91 1 -1 -9 -37 -24 -81z
m-6649 -315 c111 -54 181 -69 351 -77 l147 -7 -79 -63 c-94 -76 -249 -154
-358 -182 -325 -83 -641 -27 -812 144 -89 89 -88 106 9 150 103 48 188 116
263 212 l65 83 167 -111 c92 -61 203 -128 247 -149z m6235 113 c0 -26 -73 -76
-390 -267 -256 -154 -295 -174 -288 -153 11 35 351 262 560 373 105 56 118 61
118 47z m-3430 -94 c0 -35 -17 -71 -31 -63 -10 7 -13 98 -2 108 12 13 33 -16
33 -45z m3750 -87 c0 -20 -68 -98 -125 -143 -108 -88 -319 -183 -534 -240
-106 -29 -129 -32 -269 -32 -87 0 -157 5 -162 10 -13 13 223 128 305 149 46
12 88 14 175 9 175 -10 267 25 460 169 105 79 150 103 150 78z m-961 -104
c-76 -73 -116 -102 -195 -143 -129 -67 -241 -105 -331 -111 -69 -5 -73 -4 -73
15 0 51 397 263 584 312 120 32 121 28 15 -73z m-2721 -17 c27 -54 29 -83 5
-78 -24 4 -68 89 -60 112 11 27 30 15 55 -34z m3385 -254 c15 -4 27 -11 27
-16 0 -13 -107 -13 -115 0 -7 11 32 30 50 25 6 -2 22 -6 38 -9z m-2813 -26
c94 -26 147 -48 154 -67 15 -38 -150 -86 -299 -87 -100 -1 -145 13 -170 50
-39 60 -2 86 95 66 88 -19 87 -19 63 46 -8 19 71 15 157 -8z m-485 -160 c31
-62 47 -122 35 -134 -31 -31 -136 159 -116 210 6 15 9 15 32 -7 14 -13 36 -44
49 -69z m-385 35 c14 -17 6 -59 -20 -103 -25 -41 -38 -40 -46 3 -7 42 0 78 22
99 19 20 28 20 44 1z m3240 9 c0 -3 -30 -34 -67 -70 -78 -74 -188 -133 -304
-163 -112 -29 -315 -52 -453 -52 -193 -1 -596 75 -596 112 0 5 2 9 4 9 2 0 39
9 83 20 161 40 732 127 943 143 79 6 390 7 390 1z m208 -18 c8 -40 -270 -276
-325 -276 -57 0 74 162 199 248 80 55 120 64 126 28z m-3250 -52 c33 -22 73
-87 79 -133 7 -51 -3 -91 -23 -91 -33 0 -61 -45 -69 -108 -4 -34 -14 -71 -23
-82 l-17 -20 -40 21 c-104 56 -315 262 -315 308 0 6 11 11 25 11 18 0 40 -15
73 -52 125 -138 157 -158 195 -119 24 24 27 64 12 190 -7 66 -6 75 10 87 20
15 57 10 93 -12z m3432 12 c0 -22 -62 -101 -155 -196 -45 -47 -87 -95 -94
-108 -13 -25 -7 -42 15 -42 25 0 15 -32 -24 -70 -44 -44 -97 -63 -246 -85
-303 -45 -834 -45 -1145 0 -158 23 -421 110 -406 135 6 9 91 -4 195 -29 259
-64 1017 -35 1305 50 115 34 246 115 385 239 136 121 170 142 170 106z m-2316
-62 c33 -8 130 -38 215 -65 300 -98 543 -139 1096 -183 l160 -13 -415 -2
c-456 -1 -560 7 -710 54 -158 50 -414 166 -455 206 -19 19 -19 19 14 19 18 0
61 -7 95 -16z m-486 -60 c179 -67 577 -271 715 -367 102 -71 64 -103 -123
-100 -126 2 -287 29 -367 64 -78 33 -233 142 -305 214 -104 104 -134 191 -75
215 36 14 53 12 155 -26z m520 -120 c83 -41 152 -78 152 -84 0 -22 -61 -8
-149 35 -99 48 -201 112 -201 125 0 15 45 -2 198 -76z m-778 -87 c0 -31 -71
-70 -109 -60 -30 8 -22 24 25 50 44 25 84 30 84 10z m148 -84 c22 -16 98 -82
169 -149 225 -212 258 -229 448 -229 142 1 212 16 272 61 39 30 47 30 32 3
-18 -34 -1 -85 46 -143 61 -75 52 -81 -113 -73 -150 6 -279 36 -444 103 -320
128 -548 324 -500 429 15 32 39 32 90 -2z m-731 -5 c39 -36 27 -87 -17 -73
-27 8 -43 41 -36 71 8 30 23 30 53 2z m703 -255 c140 -143 184 -207 110 -156
-44 29 -190 164 -227 209 -21 27 -33 50 -29 59 9 24 30 8 146 -112z m1142 102
c100 -23 386 -52 738 -75 309 -20 396 -28 389 -34 -2 -1 -242 1 -534 5 -419 6
-545 11 -604 23 -76 16 -111 37 -111 66 0 35 24 38 122 15z m-1555 -77 c12
-13 31 -59 43 -103 12 -44 51 -171 88 -282 36 -111 63 -205 59 -209 -23 -23
-288 305 -348 431 -47 98 -38 135 41 169 51 22 93 20 117 -6z m185 -54 c45
-66 63 -137 63 -251 0 -155 -15 -152 -66 12 -50 160 -67 293 -35 282 6 -2 23
-21 38 -43z m821 16 c122 -25 167 -38 167 -51 0 -25 -225 2 -290 36 -77 40
-30 45 123 15z m773 -90 c212 -12 515 -37 564 -47 33 -6 34 -7 10 -14 -14 -4
-110 -8 -215 -8 -203 -1 -450 -15 -512 -29 -51 -11 -92 1 -131 39 -69 68 -27
77 284 59z m-1303 -278 c58 -136 81 -241 75 -336 -8 -129 -25 -124 -91 27 -72
166 -97 302 -74 410 8 37 9 38 26 23 10 -9 39 -65 64 -124z m1586 92 c60 -12
30 -24 -59 -24 -49 0 -90 4 -90 9 0 17 92 26 149 15z m-1274 -59 c33 -9 78
-28 100 -43 l40 -27 -40 -3 c-41 -3 -245 45 -307 72 -32 14 -31 14 57 15 52 1
116 -6 150 -14z m1164 -46 c62 -22 29 -61 -76 -92 -83 -25 -265 -38 -470 -35
l-192 3 160 49 c87 26 205 56 262 66 117 21 269 25 316 9z m-853 -204 c187
-57 299 -77 439 -79 140 -1 177 7 224 50 43 39 101 57 101 31 0 -28 -78 -84
-140 -101 -188 -53 -513 -31 -663 46 -87 44 -152 98 -118 98 5 0 76 -20 157
-45z m-312 -221 c89 -67 171 -114 200 -114 34 0 16 35 -62 123 -18 22 -32 41
-29 43 2 2 66 -26 142 -62 77 -36 176 -78 222 -93 46 -14 83 -29 83 -32 0 -10
-50 -29 -114 -44 -79 -19 -254 -19 -334 0 -83 20 -152 56 -190 100 -28 31 -32
43 -32 90 0 40 4 55 13 55 8 0 53 -30 101 -66z m700 -30 c36 -14 11 -24 -59
-24 -69 0 -99 12 -57 23 27 7 99 8 116 1z m-260 -265 c61 -48 131 -185 266
-524 81 -203 103 -269 98 -292 -5 -23 -86 122 -221 394 -111 225 -202 383
-218 383 -6 0 -7 -10 -4 -22 18 -60 107 -272 187 -448 186 -405 264 -610 230
-610 -4 0 -30 37 -59 83 -152 243 -457 875 -479 993 -5 28 -2 34 23 48 43 24
144 21 177 -5z"/>
<path d="M4611 10770 c-45 -47 -158 -200 -209 -282 -98 -157 -175 -342 -206
-492 -21 -97 -20 -280 0 -387 28 -151 35 -134 59 151 37 428 73 540 262 805
90 127 137 209 130 228 -2 7 -18 -3 -36 -23z"/>
<path d="M2391 9564 c-1 -116 22 -221 71 -318 34 -68 84 -136 100 -136 20 0 0
78 -46 179 -25 55 -57 140 -71 188 -13 48 -30 111 -38 138 l-15 50 -1 -101z"/>
<path d="M4440 8631 c0 -17 63 -59 143 -96 123 -57 154 -43 61 28 -73 55 -204
99 -204 68z"/>
<path d="M8634 10140 c-11 -5 -39 -29 -62 -55 -83 -95 -72 -167 77 -503 91
-205 130 -440 101 -617 -6 -37 -27 -94 -55 -148 -59 -115 -60 -153 -3 -108 69
55 139 332 124 491 -11 116 -52 271 -126 470 -90 244 -95 283 -50 389 32 75
31 95 -6 81z"/>
<path d="M10884 8992 c-38 -25 -50 -192 -14 -192 13 0 50 107 50 144 0 35 -18
60 -36 48z"/>
<path d="M10753 8616 c-103 -124 -241 -314 -300 -411 -103 -172 -145 -298
-253 -766 -39 -167 -73 -305 -75 -307 -2 -3 -84 -13 -182 -24 -237 -26 -535
-21 -662 11 -182 46 -261 47 -261 2 0 -51 120 -68 568 -81 321 -10 517 -23
579 -39 18 -4 34 -19 46 -42 16 -30 18 -58 15 -241 -2 -147 0 -210 9 -219 33
-33 53 100 53 362 0 244 -5 229 75 244 22 4 229 7 460 6 258 -1 441 2 475 9
75 14 168 61 229 116 67 60 113 157 136 284 21 116 56 231 101 329 19 41 34
76 34 79 0 4 -21 -14 -46 -38 -72 -70 -109 -156 -144 -334 -27 -131 -57 -195
-124 -261 -72 -70 -158 -111 -261 -125 -47 -6 -249 -9 -490 -8 -449 2 -483 -1
-495 -51 -8 -36 -30 -39 -30 -4 0 39 25 199 50 323 114 558 261 932 354 897 9
-4 26 -27 37 -53 12 -25 23 -43 26 -40 3 2 9 39 14 82 12 110 32 169 86 259
99 164 90 179 -24 41z"/>
<path d="M12059 7406 c-25 -6 -65 -24 -90 -38 -45 -27 -116 -95 -89 -86 159
56 221 71 296 72 73 1 85 -2 130 -29 56 -35 116 -110 133 -165 26 -86 33 -208
28 -454 -6 -302 -14 -339 -90 -422 -27 -30 -69 -66 -94 -80 -110 -65 -185 -48
-253 57 -22 34 -40 66 -40 71 0 4 -4 8 -9 8 -4 0 -2 -33 5 -74 34 -196 -58
-369 -243 -462 l-78 -39 47 -3 c66 -4 123 28 247 140 130 117 176 152 311 233
221 133 245 200 245 680 0 325 -8 387 -59 464 -76 114 -246 168 -397 127z"/>
<path d="M12278 7143 c-49 -51 -81 -190 -93 -398 -3 -60 -8 -137 -11 -170 -10
-95 2 -61 26 75 34 199 68 360 90 429 27 82 24 102 -12 64z"/>
<path d="M11407 6692 c-61 -134 -235 -324 -366 -402 -100 -59 -101 -59 -225 5
-107 54 -156 68 -156 42 0 -19 24 -39 94 -78 90 -50 157 -124 209 -232 70
-146 101 -154 72 -18 -26 126 -12 152 206 371 156 157 209 236 209 312 0 26
-4 49 -8 52 -5 3 -20 -21 -35 -52z"/>
<path d="M8534 6605 c3 -27 8 -70 12 -95 8 -56 -18 -94 -76 -111 -51 -16 -77
-40 -89 -86 -12 -43 -13 -168 -3 -228 8 -39 8 -39 21 35 17 102 49 198 69 209
38 20 218 46 595 86 409 44 567 79 640 143 50 44 -12 40 -178 -11 -193 -61
-434 -87 -700 -76 -182 7 -201 16 -266 130 l-31 54 6 -50z"/>
<path d="M4110 5078 c1 -42 37 -130 80 -193 57 -85 189 -206 320 -294 172
-116 295 -208 425 -315 149 -125 185 -151 185 -136 0 45 -298 307 -551 486
-169 119 -317 269 -389 392 -29 50 -57 92 -62 92 -4 0 -8 -15 -8 -32z"/>
<path d="M8360 11223 c-72 -15 -31 -33 125 -57 160 -24 815 -89 823 -82 11 12
-14 49 -41 61 -41 17 -194 41 -382 59 -161 16 -484 28 -525 19z"/>
<path d="M8480 11106 c-16 -20 -9 -60 11 -64 20 -4 83 54 74 68 -9 15 -71 12
-85 -4z"/>
</g>
</svg>
