<?xml version="1.0" standalone="no"?>
<!DOCTYPE svg PUBLIC "-//W3C//DTD SVG 20010904//EN"
 "http://www.w3.org/TR/2001/REC-SVG-20010904/DTD/svg10.dtd">
<svg version="1.0" xmlns="http://www.w3.org/2000/svg"
 width="1161.000000pt" height="1280.000000pt" viewBox="0 0 1161.000000 1280.000000"
 preserveAspectRatio="xMidYMid meet">
<g transform="translate(0.000000,1280.000000) scale(0.100000,-0.100000)"
fill="#000000" stroke="none">
<path d="M5507 12709 c-7 -87 1 -114 49 -171 30 -36 38 -80 24 -123 -16 -48
-43 -47 -56 2 -9 39 -42 65 -98 79 -26 6 -28 5 -21 -17 4 -13 29 -57 56 -98
55 -83 60 -112 29 -179 -25 -56 -52 -54 -61 2 -8 47 -39 76 -80 76 -35 0 -38
21 -9 65 29 43 25 52 -25 59 -39 6 -50 4 -89 -23 -24 -17 -66 -35 -92 -41 -27
-6 -57 -13 -67 -16 -16 -5 -17 1 -11 63 5 66 5 69 -26 106 -17 20 -37 37 -45
37 -13 0 -45 -78 -45 -109 0 -9 11 -37 25 -63 32 -59 31 -79 -1 -117 -35 -42
-64 -42 -64 2 0 36 -21 80 -52 114 -20 21 -23 22 -40 7 -31 -29 -33 -75 -4
-132 14 -28 26 -62 26 -74 0 -13 -21 -54 -47 -92 -92 -132 -94 -137 -89 -189
5 -48 0 -77 -14 -77 -27 0 -130 144 -130 183 0 9 13 41 30 70 33 59 31 85 -10
152 -36 59 -50 42 -50 -61 0 -94 -32 -99 -85 -14 -37 59 -37 66 0 110 41 50
51 89 31 127 -15 29 -93 110 -99 102 -8 -11 -36 -147 -34 -168 1 -13 -3 -26
-8 -28 -15 -5 -85 56 -85 74 0 9 15 33 34 54 41 45 53 94 37 152 -28 98 -52
96 -97 -8 -18 -45 -32 -65 -45 -65 -21 0 -69 79 -69 114 0 19 -12 34 -42 57
-41 30 -46 31 -121 27 -42 -3 -80 -7 -83 -11 -9 -9 33 -73 60 -90 12 -8 43
-18 68 -22 80 -12 131 -55 144 -123 6 -28 4 -32 -14 -32 -12 0 -26 9 -32 20
-25 46 -101 62 -167 35 l-36 -15 24 -26 c13 -14 44 -38 68 -55 39 -26 53 -29
121 -29 80 0 127 -19 154 -62 16 -27 1 -31 -51 -14 -52 17 -80 13 -143 -19
l-34 -18 34 -29 c51 -42 83 -47 169 -26 41 9 85 15 97 12 25 -6 114 -96 114
-114 0 -20 -32 -23 -66 -6 -19 9 -46 16 -60 16 -39 0 -180 -110 -157 -123 4
-2 40 -7 80 -11 64 -6 79 -4 137 19 90 36 105 32 141 -36 17 -31 46 -78 66
-105 55 -74 72 -113 72 -169 1 -56 -17 -97 -69 -162 -19 -23 -43 -61 -53 -86
-36 -84 -67 -63 -78 53 -5 51 -2 58 30 100 43 55 55 121 33 174 -8 20 -19 36
-25 36 -19 0 -71 -109 -71 -150 0 -28 -4 -40 -14 -40 -18 0 -46 38 -46 62 0
29 -53 107 -81 118 -35 15 -141 9 -147 -8 -6 -19 79 -100 113 -107 63 -13 95
-33 95 -60 0 -28 -2 -29 -48 -16 -18 6 -40 7 -48 4 -19 -7 -40 -49 -49 -97
l-8 -38 34 7 c19 4 55 16 81 27 82 35 118 5 118 -95 0 -24 12 -62 30 -99 17
-32 30 -63 30 -68 0 -21 -44 -9 -89 24 -25 18 -98 62 -161 96 -63 35 -133 76
-154 91 -42 30 -126 135 -126 157 0 8 16 32 35 55 46 53 47 101 5 175 -17 28
-34 52 -39 52 -10 0 -41 -117 -41 -155 0 -38 -26 -42 -61 -9 -40 38 -44 61
-20 114 35 77 29 106 -34 167 -30 29 -59 53 -64 53 -14 0 -23 -73 -16 -124 6
-38 4 -47 -10 -52 -13 -5 -29 5 -59 39 -47 53 -72 67 -116 67 -40 0 -120 -20
-120 -30 0 -5 23 -25 52 -46 36 -27 66 -40 97 -44 38 -4 47 -9 49 -27 2 -16
-3 -26 -20 -32 -28 -11 -53 -38 -62 -68 -9 -29 1 -29 114 -1 97 24 129 20 167
-18 37 -37 26 -50 -44 -46 -53 3 -64 0 -108 -30 -27 -18 -50 -38 -52 -44 -9
-28 124 -32 203 -7 67 21 93 11 130 -49 15 -24 40 -59 55 -79 16 -20 29 -46
29 -58 0 -23 -11 -26 -105 -36 -127 -13 -119 -15 -131 35 -18 76 -85 99 -174
59 l-44 -20 44 -39 c26 -23 60 -42 80 -45 91 -16 90 -41 -6 -104 l-78 -51 -26
25 c-30 29 -73 32 -126 10 -51 -21 -44 -52 20 -85 27 -14 51 -31 53 -37 2 -6
-12 -26 -32 -45 -21 -18 -46 -50 -56 -70 -21 -41 -43 -49 -58 -20 -5 9 -12 55
-15 102 -4 47 -16 131 -27 187 -11 56 -19 126 -17 155 3 46 6 53 23 51 11 -2
30 0 42 2 42 10 73 106 53 160 l-12 30 -19 -39 c-49 -100 -95 -59 -49 43 25
54 25 78 1 117 -21 34 -80 84 -99 84 -8 0 -12 -25 -12 -76 0 -63 4 -83 26
-120 29 -50 27 -94 -5 -94 -12 0 -24 14 -35 45 -21 55 -66 85 -126 85 -39 0
-42 -2 -35 -22 4 -13 9 -36 12 -51 5 -26 3 -28 -18 -25 -30 4 -62 59 -94 165
-33 107 -40 166 -26 235 12 56 41 96 61 83 6 -3 24 -32 40 -64 21 -43 38 -63
65 -75 43 -21 105 -32 105 -20 0 5 -12 42 -27 83 -23 64 -33 78 -75 108 -26
19 -48 39 -48 43 0 13 60 60 76 60 8 0 24 -21 36 -46 17 -37 31 -51 67 -67 60
-26 131 -35 131 -16 0 22 -40 82 -73 110 -44 37 -32 59 30 59 55 0 118 26 150
61 22 25 59 106 51 114 -3 3 -22 -4 -44 -14 -21 -11 -58 -25 -80 -30 -30 -8
-52 -24 -79 -56 -30 -37 -42 -45 -71 -45 -27 0 -34 4 -34 19 0 10 7 25 16 32
9 7 21 25 26 39 13 33 12 150 -1 163 -8 8 -11 5 -11 -11 0 -12 -15 -39 -34
-59 -57 -64 -86 -114 -86 -149 0 -24 -7 -38 -26 -51 -14 -10 -38 -28 -54 -40
-42 -35 -60 -30 -60 15 -1 58 -19 125 -42 149 -19 21 -85 50 -93 41 -2 -1 0
-42 4 -89 6 -80 9 -90 44 -134 l37 -48 -34 -61 c-19 -34 -37 -83 -41 -111 -7
-49 -20 -75 -35 -75 -4 0 -30 33 -58 74 -28 40 -67 92 -87 116 -42 50 -43 68
-9 110 19 22 27 43 27 69 0 48 -21 111 -37 111 -20 0 -53 -41 -76 -93 -22 -50
-38 -58 -62 -29 -28 32 -30 59 -7 109 27 60 27 124 0 187 l-22 49 -29 -28
c-41 -40 -54 -83 -40 -136 9 -33 9 -44 -1 -50 -14 -8 -36 2 -126 56 -78 47
-128 47 -203 2 -30 -18 -55 -39 -55 -47 0 -24 89 -42 139 -28 23 6 64 12 91
15 44 4 55 1 92 -26 24 -17 43 -36 43 -41 0 -22 -35 -23 -74 -2 -71 36 -105
34 -153 -6 -24 -19 -43 -38 -43 -43 0 -5 26 -16 57 -25 45 -13 78 -15 159 -10
l102 7 36 -31 c34 -30 47 -60 26 -60 -5 0 -33 9 -62 21 -54 21 -108 21 -150
-2 -25 -13 -11 -32 45 -61 82 -42 114 -48 168 -36 44 10 55 9 86 -7 48 -26
133 -121 133 -149 0 -13 -8 -34 -19 -47 -31 -41 -45 -73 -43 -103 5 -60 -10
-59 -146 11 -151 77 -221 91 -268 54 -31 -24 -54 -27 -54 -7 0 36 -33 28 -101
-25 -30 -24 -39 -26 -48 -15 -9 10 -4 27 19 70 25 48 29 64 24 104 -10 77 -84
165 -84 100 0 -13 -9 -38 -20 -56 -25 -41 -25 -54 1 -122 21 -55 20 -100 -2
-127 -21 -25 -39 -13 -68 45 -21 41 -42 65 -74 85 -24 15 -48 27 -52 27 -13 0
3 -97 23 -144 16 -34 31 -50 73 -72 l54 -29 3 -72 c3 -70 2 -73 -20 -73 -12 0
-40 12 -62 28 -56 39 -122 37 -173 -5 -21 -17 -39 -37 -41 -46 -5 -25 70 -42
172 -40 48 2 97 -2 107 -8 11 -5 33 -35 50 -67 16 -31 38 -69 47 -84 22 -36 8
-50 -38 -39 -19 5 -82 22 -139 39 -97 29 -109 35 -160 86 -59 58 -127 95 -173
96 -36 0 -35 -8 7 -63 23 -30 47 -49 68 -55 34 -9 49 -39 25 -53 -7 -5 -34 -9
-60 -9 -26 0 -67 -5 -92 -12 -40 -11 -47 -9 -89 15 -66 39 -139 38 -195 -3
-50 -36 -53 -50 -9 -49 17 1 49 -6 69 -15 21 -9 47 -16 58 -16 27 0 26 -31 -3
-61 -40 -41 -133 -163 -150 -196 -10 -18 -17 -50 -17 -73 0 -37 2 -40 28 -40
15 0 46 9 68 19 l41 19 5 83 c6 115 46 195 80 161 8 -8 6 -22 -5 -50 -17 -43
-13 -71 17 -131 17 -31 18 -32 36 -16 26 24 57 109 69 188 5 38 16 76 23 84
16 20 106 63 131 63 28 0 21 -43 -10 -62 -50 -30 -84 -74 -90 -116 -3 -24 -1
-42 6 -46 18 -12 81 44 106 94 31 62 86 110 128 111 58 2 77 -2 194 -42 106
-37 120 -40 184 -33 l69 7 45 -42 c24 -22 53 -41 64 -41 25 0 36 -17 22 -33
-5 -7 -60 -31 -121 -52 -94 -33 -114 -44 -130 -71 -24 -38 -25 -67 -4 -88 31
-32 56 -19 149 79 75 80 96 97 127 102 49 7 52 -16 7 -49 -46 -34 -110 -154
-92 -172 3 -3 28 7 55 22 37 20 63 45 99 98 55 82 86 110 139 124 45 12 70 5
70 -20 0 -19 -19 -30 -50 -30 -33 0 -117 -116 -98 -136 3 -2 29 1 59 7 43 9
63 21 99 58 67 68 89 81 143 81 66 0 146 -30 221 -84 65 -47 84 -72 67 -89
-17 -17 -112 10 -176 48 -32 19 -67 35 -79 35 -44 0 -86 -68 -86 -141 0 -38
12 -51 26 -28 11 18 97 69 116 69 30 0 21 -35 -16 -68 -19 -17 -64 -44 -99
-61 -81 -39 -90 -57 -77 -154 6 -39 15 -76 21 -82 7 -7 25 6 58 40 37 39 52
65 69 121 24 80 54 124 83 124 29 0 35 -28 12 -53 -33 -36 -44 -65 -37 -94 11
-43 44 -113 54 -113 8 0 58 78 73 114 4 10 2 45 -4 78 -10 52 -10 61 6 78 35
39 114 20 183 -44 36 -32 72 -110 97 -210 30 -124 46 -151 107 -184 106 -57
166 -104 246 -192 86 -95 97 -123 51 -128 -22 -3 -32 5 -58 46 -17 27 -42 54
-56 60 -41 19 -99 15 -129 -9 -35 -27 -33 -37 8 -44 43 -8 99 -42 91 -55 -9
-15 -152 -13 -165 3 -7 6 -24 35 -38 62 -29 54 -91 95 -144 95 -26 0 -98 -36
-98 -48 0 -4 15 -14 33 -22 35 -17 64 -59 55 -82 -5 -12 -16 -13 -65 -5 -54 9
-64 8 -114 -15 -60 -27 -108 -65 -138 -107 l-20 -27 92 3 c133 5 151 10 198
48 45 39 77 50 108 40 34 -11 25 -40 -19 -60 -43 -19 -80 -78 -80 -128 0 -27
13 -36 25 -17 4 6 28 21 54 35 27 13 70 49 99 83 57 65 92 85 143 80 49 -4 49
-31 0 -63 -41 -27 -61 -66 -61 -116 0 -40 14 -43 74 -16 43 20 60 35 82 73 41
73 63 93 117 109 41 12 54 12 80 1 48 -20 108 -91 162 -192 27 -49 63 -113 82
-141 18 -29 47 -81 65 -115 l33 -63 1 -185 c1 -222 6 -253 54 -350 20 -41 35
-81 33 -87 -11 -32 -205 -7 -323 40 -47 19 -102 37 -122 41 -20 4 -47 15 -59
25 -20 16 -21 21 -10 35 7 9 25 16 40 16 14 0 44 10 65 23 45 25 86 84 67 96
-18 11 -122 -6 -175 -29 -57 -24 -72 -25 -80 -4 -19 48 -2 64 67 64 50 0 109
36 132 80 17 33 20 66 6 75 -13 8 -116 -39 -153 -70 -16 -14 -38 -25 -49 -25
-34 0 -25 69 16 126 67 95 81 139 61 202 -10 30 -19 28 -67 -15 -51 -46 -69
-86 -69 -155 0 -107 -22 -128 -75 -71 -29 32 -87 61 -177 90 -30 9 -21 -29 21
-95 44 -67 64 -82 113 -82 43 0 76 -24 94 -67 20 -47 11 -56 -47 -49 -27 4
-66 2 -88 -4 -39 -10 -121 -64 -121 -78 0 -16 50 -32 98 -32 26 0 79 7 119 16
l71 17 66 -67 c36 -36 66 -73 66 -81 0 -13 -27 -15 -166 -15 -197 0 -207 3
-293 96 -76 80 -117 141 -147 213 -12 32 -41 93 -64 135 -69 132 -49 191 46
135 28 -17 64 -29 84 -29 41 0 105 31 105 51 0 15 -116 58 -157 59 -17 0 -31
8 -38 19 -12 24 -8 27 62 47 71 21 137 60 150 90 6 13 9 26 7 28 -2 2 -39 6
-82 10 -88 7 -73 14 -165 -88 -19 -21 -39 -35 -45 -33 -7 2 -15 35 -18 75 -9
96 -55 174 -73 125 -4 -10 -10 -45 -13 -78 -5 -55 -3 -65 26 -111 35 -57 38
-79 16 -130 -22 -53 -43 -41 -100 58 -61 105 -65 110 -186 209 -127 104 -229
234 -203 258 5 5 31 4 62 -2 35 -7 55 -8 62 -1 17 17 -52 87 -119 122 -66 36
-81 61 -57 97 24 36 43 31 73 -19 14 -24 35 -49 46 -55 26 -17 122 -26 131
-13 6 10 -60 70 -117 107 -15 9 -27 26 -27 36 0 28 47 24 95 -8 30 -21 54 -27
112 -31 82 -5 90 1 79 62 -6 29 -14 37 -56 55 -59 25 -91 26 -154 5 -37 -13
-53 -14 -72 -5 -13 6 -24 15 -24 20 0 5 16 32 35 61 36 54 42 81 25 124 -14
37 -33 32 -74 -16 -48 -56 -76 -116 -76 -164 0 -44 -59 -144 -85 -144 -8 0
-23 17 -34 39 -11 21 -34 51 -52 65 -35 30 -109 70 -115 63 -3 -2 -2 -22 2
-44 11 -68 44 -114 114 -161 62 -40 65 -44 76 -97 7 -31 17 -69 24 -85 18 -43
7 -50 -49 -35 -146 38 -232 107 -304 243 -26 49 -47 95 -47 101 0 7 19 29 41
51 l41 39 -4 71 c-3 50 -9 75 -22 87 -17 17 -19 16 -47 -17 -16 -19 -32 -45
-34 -57 -3 -13 -7 -34 -10 -48 -10 -47 -33 -41 -96 23 -32 34 -59 64 -59 67 0
3 7 22 15 42 8 19 15 57 15 83 0 40 -6 55 -41 99 -55 69 -76 80 -89 46 -14
-37 -12 -66 6 -100 44 -80 46 -87 36 -97 -8 -8 -28 -3 -70 15 -33 15 -69 27
-80 27 -11 0 -34 11 -50 25 -50 42 -86 50 -123 28 -33 -19 -96 -99 -87 -109 4
-3 37 0 75 6 125 23 165 23 201 0 42 -26 33 -40 -24 -40 -25 0 -57 -6 -72 -14
-34 -17 -67 -54 -58 -63 15 -15 126 -15 172 1 63 21 100 20 140 -5 62 -38 102
-119 52 -105 -88 26 -162 15 -198 -29 -23 -27 4 -35 125 -35 84 0 118 -4 145
-18 38 -19 108 -114 112 -153 3 -23 1 -24 -63 -23 -94 1 -150 24 -178 74 -35
63 -67 80 -151 80 -41 0 -70 -4 -68 -10 2 -5 28 -26 58 -47 76 -53 73 -66 -20
-77 -59 -7 -85 -5 -125 7 -27 9 -60 19 -72 22 -23 6 -142 -20 -157 -35 -14
-14 38 -40 103 -51 87 -16 82 -39 -22 -97 -42 -24 -84 -54 -93 -67 -23 -35
-30 -135 -11 -159 14 -19 15 -19 43 1 51 37 75 69 89 123 14 53 48 100 71 100
22 0 24 -17 8 -55 -21 -50 -15 -100 11 -100 20 0 44 40 100 165 29 66 107 113
122 74 4 -11 -8 -28 -35 -52 -57 -51 -83 -120 -39 -106 63 19 104 48 137 94
19 27 43 52 52 55 28 10 190 -15 243 -37 28 -11 66 -34 87 -49 51 -41 100 -59
198 -75 58 -10 90 -20 105 -34 17 -18 18 -22 5 -30 -8 -5 -28 -10 -45 -10 -16
0 -50 -9 -74 -20 -62 -29 -76 -26 -112 24 -42 59 -86 80 -156 74 -58 -5 -99
-34 -136 -98 -20 -33 -15 -37 23 -15 30 17 102 18 150 2 54 -18 46 -43 -29
-89 -35 -21 -77 -49 -93 -63 -35 -29 -48 -31 -90 -9 -61 32 -194 -17 -246 -90
-18 -24 -32 -50 -32 -57 0 -19 102 -4 166 25 65 30 94 33 94 10 0 -25 -56 -90
-121 -140 -35 -27 -62 -56 -65 -71 -4 -15 1 -69 11 -121 l18 -95 53 55 53 55
-6 85 c-6 92 6 130 49 157 30 19 39 2 29 -54 -12 -67 23 -185 48 -160 29 30
51 119 51 207 0 84 2 95 27 131 48 70 173 136 173 92 0 -9 -9 -28 -20 -42 -11
-14 -20 -41 -20 -59 0 -45 20 -134 30 -134 4 0 29 32 54 72 32 50 48 86 52
122 6 40 14 58 41 83 45 43 88 50 179 28 157 -37 255 -109 319 -234 25 -49 53
-84 109 -134 81 -73 129 -142 124 -179 -3 -22 -6 -23 -83 -20 -91 3 -158 -15
-239 -67 -66 -41 -93 -40 -152 8 -57 45 -89 62 -162 85 -49 17 -53 20 -63 61
-15 59 -47 87 -108 93 -40 3 -58 -1 -99 -23 -28 -15 -65 -43 -83 -62 -28 -28
-31 -35 -19 -44 14 -9 82 -7 161 7 38 6 53 -4 44 -28 -3 -7 -42 -31 -87 -52
-64 -31 -91 -39 -128 -37 -25 1 -60 -3 -76 -9 -60 -23 -115 -96 -129 -172 -10
-53 2 -65 34 -35 14 14 42 32 62 40 20 8 55 31 77 51 22 20 45 36 51 36 17 0
13 -39 -13 -110 -21 -58 -27 -66 -57 -74 -122 -31 -223 -62 -278 -87 -69 -31
-138 -37 -201 -18 -20 6 -125 10 -251 9 -254 -1 -253 -1 -284 101 -17 56 -23
64 -60 80 -22 10 -64 24 -93 30 -87 20 -90 -2 -15 -100 18 -24 33 -52 33 -62
0 -28 -36 -59 -69 -59 -25 0 -31 6 -47 52 -24 66 -113 145 -144 128 -10 -5
-32 -10 -48 -10 -16 0 -36 -7 -43 -16 -11 -14 -10 -19 11 -36 39 -32 68 -77
63 -99 -3 -10 0 -26 7 -34 22 -27 -3 -37 -97 -40 -111 -3 -154 -23 -211 -98
-47 -60 -65 -117 -39 -117 44 0 162 47 186 74 72 79 90 96 105 96 24 0 29 -42
12 -85 -17 -41 -22 -125 -7 -125 13 0 127 92 150 121 10 13 26 41 36 63 13 26
30 43 53 53 66 27 81 -5 35 -72 -24 -34 -28 -52 -31 -120 l-3 -80 22 25 c12
14 26 32 33 40 6 8 34 34 63 58 28 23 65 64 82 91 17 26 42 53 56 59 14 7 68
12 120 12 91 0 95 -1 95 -22 0 -13 -20 -40 -52 -70 -83 -77 -119 -98 -188
-109 -35 -5 -71 -14 -80 -19 -9 -5 -80 -76 -157 -157 -129 -137 -227 -261
-267 -340 -15 -30 -20 -33 -64 -33 -114 0 -200 -62 -221 -159 -15 -70 -14 -91
4 -91 35 0 97 43 135 94 45 62 58 72 71 59 9 -9 -30 -182 -50 -223 -5 -8 -28
-21 -52 -28 -79 -24 -100 -35 -130 -65 -37 -37 -69 -98 -69 -133 0 -26 1 -27
47 -20 61 8 88 27 125 87 20 32 38 49 51 49 17 0 19 -5 14 -37 -4 -21 -11 -72
-17 -112 -7 -41 -21 -93 -32 -115 -18 -35 -20 -52 -15 -124 6 -83 29 -152 55
-160 7 -2 19 13 28 35 8 21 23 54 34 73 10 19 24 56 30 81 11 43 10 50 -16
100 -46 91 -44 256 3 247 10 -2 22 -20 29 -44 16 -56 39 -97 75 -139 48 -54
59 -47 59 34 0 90 -10 113 -76 182 l-54 58 0 65 c0 74 17 104 51 86 10 -6 19
-15 19 -20 0 -19 75 -93 107 -107 36 -15 99 -18 107 -4 3 4 -6 19 -20 32 -49
46 -50 56 -2 102 24 23 51 57 60 75 12 22 24 32 35 30 15 -3 20 -21 29 -96 9
-72 20 -111 48 -167 35 -71 92 -135 121 -135 20 0 27 49 16 118 -13 82 -22 95
-83 130 -62 35 -82 65 -82 130 -1 64 25 70 54 12 16 -32 33 -47 73 -66 46 -21
137 -34 137 -19 0 3 -22 38 -49 78 -51 76 -68 89 -139 107 -35 9 -46 18 -58
45 -25 60 -13 155 20 155 8 0 28 -21 45 -47 17 -27 41 -55 54 -64 20 -15 88
-39 110 -39 24 0 -15 91 -55 126 -12 12 -45 29 -71 39 -66 25 -87 54 -87 122
0 49 4 57 40 97 42 45 93 66 160 66 45 0 66 14 150 99 49 50 95 86 132 104 99
47 124 34 84 -43 -30 -57 -32 -95 -11 -147 18 -42 25 -37 49 29 18 48 65 98
92 98 25 0 27 -28 6 -88 -12 -31 -26 -76 -32 -98 -11 -46 -25 -54 -98 -54 -32
0 -49 -6 -67 -24 -40 -40 -75 -196 -43 -196 28 0 99 53 117 89 23 44 46 65 61
56 26 -16 -5 -124 -54 -188 -16 -20 -30 -54 -33 -76 -6 -44 4 -131 15 -131 17
0 116 96 127 124 10 24 10 37 -1 69 -8 22 -14 59 -14 82 0 97 27 99 72 8 24
-50 46 -77 83 -105 l50 -38 3 37 c7 77 -5 104 -85 180 l-75 71 3 79 c4 90 29
144 55 122 8 -6 14 -26 14 -44 0 -41 37 -88 91 -115 53 -27 59 -25 59 17 0 44
-39 114 -79 142 -31 22 -61 76 -61 110 0 55 158 142 263 145 80 2 81 -18 8
-91 -60 -61 -61 -62 -61 -117 0 -67 10 -70 64 -23 23 20 43 51 54 82 11 29 24
50 32 50 23 0 54 -74 58 -140 7 -125 17 -137 120 -147 42 -4 89 -10 105 -14
25 -6 27 -4 27 23 0 46 -42 97 -102 123 -77 33 -108 58 -129 104 -39 86 -15
114 53 62 80 -62 128 -51 94 21 -26 55 -12 63 104 63 96 0 100 1 187 44 71 36
103 60 163 123 62 64 87 83 143 106 79 32 90 32 154 11 95 -32 142 -74 223
-196 l75 -113 100 -5 c126 -6 132 -17 43 -89 -65 -53 -90 -60 -122 -36 -33 25
-84 19 -116 -13 -41 -41 -48 -90 -20 -147 12 -25 26 -45 31 -45 5 0 17 17 28
38 24 47 55 75 78 70 22 -5 21 -15 -10 -99 -18 -49 -37 -79 -71 -111 -26 -26
-46 -54 -46 -66 0 -39 -22 -122 -32 -122 -6 0 -26 14 -45 30 -33 29 -63 36
-133 31 -77 -5 -91 -23 -32 -42 52 -17 92 -47 92 -70 0 -17 -8 -19 -99 -19
l-100 0 -28 40 c-34 47 -56 57 -150 64 l-73 6 20 -52 c24 -64 39 -76 102 -84
69 -9 78 -31 30 -76 -20 -20 -56 -45 -79 -57 -23 -11 -49 -31 -58 -43 -16 -24
-39 -97 -32 -104 2 -2 35 10 72 27 56 27 73 41 98 81 39 63 59 62 92 -1 19
-39 32 -52 60 -61 20 -7 39 -9 42 -6 4 3 -12 42 -35 85 -35 68 -39 81 -28 97
10 13 27 18 67 19 51 0 54 -1 53 -25 -1 -14 -7 -39 -14 -56 -17 -40 -8 -71 34
-119 l34 -40 13 43 c9 33 10 54 1 92 -14 61 -8 80 28 80 35 0 76 -32 99 -78
26 -52 55 -176 47 -206 -9 -35 -31 -33 -117 9 -68 33 -81 36 -198 41 -138 7
-213 -5 -320 -52 -29 -13 -71 -24 -93 -24 -32 0 -45 6 -74 38 -50 53 -53 77
-16 115 40 43 52 69 52 115 0 57 -30 92 -81 92 -43 0 -45 -3 -24 -40 16 -28
20 -106 6 -114 -18 -11 -39 6 -56 44 -29 64 -43 72 -125 68 l-73 -3 -12 58
c-12 61 -45 106 -98 133 -32 17 -33 16 -41 -70 -6 -69 2 -89 44 -106 59 -24
29 -69 -60 -89 -49 -11 -95 -53 -106 -96 -8 -32 2 -86 20 -111 14 -18 15 -18
35 1 12 10 36 48 53 84 38 81 54 101 85 101 26 0 29 -14 8 -50 -8 -14 -14 -38
-15 -53 0 -32 27 -97 41 -97 5 0 17 16 26 35 22 47 44 41 57 -14 6 -25 16 -46
22 -48 6 -2 34 17 62 42 66 59 85 58 117 -5 35 -69 33 -85 -18 -115 -57 -33
-92 -31 -146 5 -52 35 -94 38 -136 10 -38 -25 -51 -25 -99 1 -21 11 -63 24
-93 29 -47 8 -61 6 -94 -11 -21 -10 -39 -24 -39 -29 0 -5 19 -22 42 -37 35
-23 52 -28 107 -28 83 0 87 -13 27 -87 l-45 -55 -80 -6 c-88 -6 -115 -19 -160
-83 -19 -27 -23 -39 -15 -51 23 -37 40 -38 94 -5 103 64 122 42 64 -73 -29
-61 -35 -82 -31 -112 7 -41 47 -125 62 -130 13 -4 65 119 65 154 0 15 -9 42
-20 58 -26 39 -26 81 0 95 17 9 22 5 39 -27 22 -43 66 -89 74 -76 3 4 8 37 12
73 6 57 3 72 -18 119 -14 29 -23 61 -20 70 13 35 45 71 65 71 19 0 20 -4 14
-47 -6 -45 -5 -47 40 -90 25 -24 51 -42 57 -40 7 2 13 24 15 49 2 37 -3 55
-27 94 -51 80 -36 132 35 121 19 -3 51 -20 70 -36 61 -54 93 -52 206 17 57 34
91 39 95 12 6 -31 -39 -81 -119 -133 -75 -48 -101 -73 -175 -161 -15 -18 -31
-26 -55 -26 -44 0 -103 -17 -117 -34 -7 -8 -15 -38 -18 -67 l-6 -54 32 28 c18
15 43 27 55 27 34 0 58 -32 54 -72 -3 -28 -10 -37 -53 -60 -41 -22 -55 -37
-77 -83 -25 -55 -26 -58 -11 -101 8 -24 19 -46 23 -49 5 -3 25 28 44 70 56
120 81 98 78 -67 l-3 -98 56 -67 c30 -37 55 -71 55 -75 0 -4 4 -8 9 -8 10 0
31 86 31 127 0 17 -21 54 -56 100 -39 50 -56 83 -58 105 -2 52 26 47 62 -11
27 -44 81 -91 105 -91 12 0 8 58 -7 94 -8 18 -35 51 -61 72 -53 44 -75 80 -75
122 0 27 15 52 32 52 5 0 17 -19 27 -42 22 -51 53 -81 103 -103 49 -20 58 -19
58 6 0 36 -38 86 -92 120 -80 52 -105 108 -74 167 20 38 91 104 157 145 59 37
109 88 133 136 30 56 119 118 135 92 4 -6 2 -45 -3 -86 l-11 -75 -57 -45 c-52
-41 -59 -51 -79 -115 -12 -39 -19 -73 -17 -76 10 -9 97 68 108 96 33 79 65 58
76 -47 l6 -71 -56 -38 c-61 -40 -72 -62 -61 -122 9 -47 31 -102 42 -102 5 0
14 27 20 61 12 65 35 99 64 99 24 0 33 -37 26 -108 -4 -40 -2 -65 10 -89 17
-37 87 -93 116 -93 17 0 19 5 14 35 -7 42 -48 129 -77 166 -33 40 -46 119 -20
119 5 0 23 -20 40 -45 31 -45 97 -98 111 -90 9 6 -4 62 -25 102 -9 18 -42 50
-73 70 -49 33 -59 45 -75 93 -35 104 -14 123 60 51 50 -49 117 -80 135 -62 13
13 -80 114 -128 139 -51 25 -73 55 -82 105 -11 70 57 160 136 180 28 7 153
-24 241 -60 36 -14 119 -62 184 -105 143 -94 165 -98 271 -48 33 15 83 31 111
34 46 6 55 3 82 -19 32 -27 64 -31 107 -15 17 6 43 6 78 -1 97 -21 98 -48 3
-73 -42 -12 -73 -27 -92 -47 -34 -35 -70 -38 -79 -6 -13 42 -46 67 -87 67 -31
0 -46 -7 -78 -37 -44 -44 -65 -91 -34 -79 61 24 134 12 134 -21 0 -18 -90 -94
-135 -115 -19 -8 -34 -5 -82 17 -101 47 -166 30 -218 -59 -14 -24 -25 -45 -25
-48 0 -3 26 -8 57 -11 45 -5 67 -2 105 15 48 20 78 19 78 -3 0 -7 -31 -42 -69
-78 -38 -36 -74 -76 -80 -88 -17 -33 -13 -80 9 -124 29 -56 47 -59 87 -16 33
36 33 37 33 136 0 84 3 102 21 125 35 45 50 35 43 -33 -5 -42 -2 -73 11 -112
l18 -53 29 34 c43 52 60 118 47 187 -16 83 17 143 78 143 27 0 28 -4 8 -60 -8
-23 -15 -60 -15 -80 0 -47 21 -140 31 -140 15 0 53 65 64 108 8 31 9 62 2 96
-17 97 6 146 88 188 76 39 353 47 500 14 33 -8 97 -19 142 -26 130 -18 247
-65 418 -168 222 -134 384 -263 372 -295 -4 -11 -17 -17 -36 -17 -16 0 -60
-16 -98 -36 -100 -54 -186 -74 -324 -74 -103 0 -118 2 -134 20 -17 19 -17 21
0 61 28 62 23 101 -20 154 -21 25 -41 45 -45 45 -15 0 -51 -121 -48 -163 3
-37 0 -42 -18 -45 -15 -2 -29 7 -45 30 -46 68 -81 96 -131 109 -73 17 -77 3
-20 -72 64 -83 80 -97 138 -118 61 -21 64 -43 9 -74 -37 -21 -40 -26 -43 -70
-2 -26 -1 -47 3 -47 3 0 23 11 45 25 22 14 44 25 50 25 5 0 27 15 48 34 50 46
82 50 123 17 l23 -18 -27 -46 c-38 -65 -60 -77 -136 -77 -88 0 -123 -23 -152
-98 -30 -79 -36 -169 -15 -210 15 -29 15 -35 1 -62 -8 -16 -15 -37 -15 -46 0
-26 90 -14 138 20 21 14 46 26 55 26 26 0 22 -71 -9 -136 -29 -62 -27 -93 11
-160 42 -73 51 -74 81 -11 41 90 41 117 4 198 -33 73 -34 99 -1 99 14 0 26
-13 40 -44 20 -46 47 -70 93 -81 71 -18 29 92 -57 149 -68 45 -89 83 -80 142
3 24 14 53 24 65 l18 23 14 -25 c8 -13 19 -33 25 -44 10 -20 119 -63 130 -52
16 16 -14 76 -67 133 -50 54 -59 69 -59 101 0 97 112 173 254 173 19 0 49 13
80 35 54 38 104 48 91 18 -5 -10 -17 -43 -27 -73 -23 -63 -30 -70 -78 -70 -19
0 -49 -9 -66 -19 -51 -31 -95 -147 -63 -166 12 -8 73 32 119 80 49 50 64 47
55 -12 -8 -61 -29 -93 -59 -93 -45 0 -100 -71 -112 -148 -10 -62 10 -62 75 2
31 31 62 56 68 56 26 0 31 -96 7 -141 -28 -54 0 -104 93 -167 45 -32 60 -28
66 16 6 47 -21 111 -68 163 -37 42 -53 85 -37 101 6 6 22 -4 47 -31 35 -38
118 -81 131 -68 13 13 -60 137 -98 167 -59 48 -71 72 -64 125 6 35 11 45 26
45 24 0 33 -14 45 -75 8 -40 17 -54 45 -73 43 -29 94 -27 98 4 6 44 -34 110
-92 150 -72 50 -105 109 -86 155 19 44 56 69 105 69 44 0 43 0 244 -170 30
-25 85 -90 124 -145 39 -55 103 -133 142 -175 99 -104 191 -260 270 -457 36
-90 65 -174 65 -188 0 -13 10 -50 21 -82 17 -46 37 -73 99 -133 52 -51 88 -95
109 -137 34 -69 37 -84 19 -116 -7 -12 -17 -47 -23 -77 -13 -72 -36 -78 -66
-18 -29 58 -55 85 -96 99 -44 14 -50 7 -34 -39 20 -58 58 -110 98 -135 30 -19
39 -33 53 -83 29 -109 8 -111 -83 -10 -75 83 -102 126 -112 176 -12 56 -33 88
-75 115 -52 33 -80 64 -80 91 0 12 11 45 24 74 27 59 24 87 -19 152 -30 46
-49 48 -70 8 -20 -38 -19 -91 2 -135 13 -26 14 -38 5 -47 -8 -8 -29 0 -82 32
-40 24 -78 53 -85 64 -7 12 -13 44 -12 71 1 80 -49 135 -123 135 -30 0 -40
-13 -20 -25 15 -10 70 -122 63 -129 -16 -15 -53 -2 -108 40 -57 44 -62 46
-116 42 -31 -2 -69 -12 -84 -22 l-27 -18 24 -25 c46 -49 72 -56 159 -43 69 11
82 10 104 -4 35 -23 22 -46 -26 -46 -31 0 -47 -8 -79 -36 -22 -20 -40 -40 -40
-44 0 -10 89 -30 132 -30 21 0 43 11 69 35 22 19 47 35 57 35 9 0 40 -13 67
-28 71 -39 68 -60 -14 -82 -34 -10 -69 -24 -77 -31 -17 -18 -46 -89 -37 -90 5
-1 25 0 47 1 30 1 45 -4 67 -26 47 -45 39 -54 -46 -54 -88 0 -118 12 -146 56
-31 51 -74 82 -125 90 -25 3 -50 2 -54 -2 -11 -11 29 -103 51 -120 8 -7 28
-15 46 -18 47 -11 60 -31 31 -49 -36 -23 -82 -29 -128 -17 -22 6 -50 8 -61 5
-24 -8 -95 -143 -81 -157 19 -19 123 22 172 68 65 61 118 58 74 -4 -17 -25
-16 -113 3 -119 22 -8 86 62 114 124 41 89 80 109 158 82 47 -17 40 -41 -18
-62 -47 -16 -111 -67 -111 -88 0 -13 107 -11 133 2 12 7 44 32 70 56 42 39 51
44 80 37 77 -16 221 -108 293 -186 59 -65 100 -138 91 -162 -6 -15 -9 -15 -44
-1 -68 28 -83 43 -83 78 0 42 -24 75 -66 93 -79 33 -98 0 -44 -74 45 -63 41
-72 -30 -72 -61 0 -91 17 -105 61 -7 21 -40 43 -78 53 -36 9 -97 -3 -97 -18 0
-15 46 -59 78 -75 24 -13 29 -35 10 -47 -6 -4 -50 -11 -97 -14 -74 -6 -87 -10
-107 -33 -22 -25 -42 -102 -30 -114 3 -4 30 1 60 10 40 13 64 29 98 67 66 72
104 64 58 -12 -21 -35 -27 -88 -10 -88 6 0 32 11 58 24 37 19 53 34 67 66 20
45 60 79 75 64 5 -5 3 -28 -7 -56 -8 -26 -12 -59 -9 -73 6 -22 9 -24 29 -14
12 6 49 40 83 75 71 75 92 79 170 34 58 -33 109 -101 125 -167 8 -28 25 -55
55 -83 47 -44 53 -63 28 -98 -20 -28 -38 -28 -78 3 -44 34 -83 32 -129 -6 -61
-50 -51 -62 45 -58 69 3 83 1 86 -12 4 -20 -64 -109 -84 -109 -8 0 -31 12 -50
26 -19 15 -46 27 -60 27 -34 -1 -100 -64 -90 -88 5 -15 15 -17 76 -11 69 7 70
7 70 -17 0 -26 -64 -107 -85 -107 -16 0 -31 -18 -49 -61 -13 -32 -13 -39 4
-77 11 -23 26 -42 33 -42 8 0 29 16 46 36 29 32 31 40 25 80 -10 69 13 124 53
124 13 0 15 -8 10 -41 -3 -23 0 -53 6 -66 13 -29 83 -68 92 -53 11 17 -5 72
-36 126 -41 73 -35 128 19 178 32 28 44 12 37 -52 -6 -58 7 -101 32 -109 7 -3
21 14 33 37 l21 41 -21 57 c-23 61 -21 89 11 134 27 37 75 37 154 -1 66 -31
103 -68 141 -142 20 -41 24 -63 24 -137 0 -72 6 -109 32 -193 31 -100 32 -110
31 -265 -1 -88 -6 -178 -12 -200 -6 -21 -32 -66 -59 -99 -60 -74 -72 -96 -72
-133 0 -78 -63 -56 -98 35 -17 46 -35 71 -68 98 -24 20 -60 61 -79 91 -39 60
-61 70 -132 60 -55 -7 -61 -12 -47 -33 12 -20 30 -30 67 -38 48 -10 35 -41
-33 -75 -33 -16 -69 -30 -80 -30 -11 0 -36 -6 -55 -14 -26 -11 -36 -24 -45
-53 -13 -44 -10 -105 6 -110 21 -7 115 79 139 128 26 50 49 69 85 69 32 0 35
-26 6 -61 -14 -17 -29 -41 -32 -53 -6 -27 8 -88 22 -93 16 -5 82 89 89 129 9
48 36 73 63 59 31 -16 60 -63 71 -111 5 -24 22 -56 40 -74 27 -28 31 -39 31
-90 0 -67 1 -67 -105 -22 -72 31 -115 32 -173 6 -49 -22 -48 -32 8 -60 51 -26
110 -26 143 0 29 23 47 25 69 8 28 -22 26 -49 -6 -67 -44 -25 -68 -64 -74
-120 -7 -81 0 -88 53 -51 26 18 53 47 63 68 9 20 24 37 32 37 8 0 34 -31 57
-70 52 -85 55 -125 17 -222 -25 -64 -27 -82 -35 -318 -10 -328 -23 -457 -54
-538 -51 -136 -77 -414 -56 -596 13 -118 4 -190 -55 -416 -24 -94 -44 -180
-44 -192 l0 -23 681 0 681 0 -7 63 c-3 34 -14 107 -23 162 -13 78 -17 171 -18
420 -1 299 -2 326 -24 415 -20 83 -24 129 -29 370 -3 151 -6 473 -6 715 1 364
4 463 19 573 10 77 15 155 11 185 -3 29 -10 133 -15 232 -8 155 -14 200 -45
319 -40 160 -43 212 -14 270 80 161 163 202 265 134 51 -34 94 -89 94 -118 0
-9 -11 -32 -25 -51 -70 -96 -78 -111 -83 -155 l-5 -47 29 7 c75 19 96 45 118
148 10 42 41 37 66 -12 32 -63 27 -91 -31 -160 -73 -88 -100 -160 -60 -160 29
0 69 40 79 80 11 48 44 53 62 9 20 -47 16 -77 -20 -158 -24 -56 -31 -84 -27
-111 6 -44 27 -92 43 -97 18 -6 82 105 90 153 5 37 1 56 -30 121 -43 95 -47
116 -22 121 12 3 35 -12 65 -41 55 -54 85 -70 111 -62 51 16 5 96 -91 160 -56
37 -80 61 -120 122 -67 103 -66 106 24 98 69 -7 73 -6 97 20 32 35 20 54 -51
78 -44 15 -61 16 -96 8 -67 -17 -90 -14 -112 17 -11 16 -36 40 -56 53 -60 41
-56 79 12 98 48 14 138 -3 215 -39 54 -26 75 -30 145 -30 119 0 183 -30 183
-85 0 -9 -14 -45 -31 -81 -25 -51 -30 -73 -26 -105 3 -22 8 -44 12 -47 4 -4
22 10 41 30 26 30 34 46 34 77 0 21 6 43 13 49 19 16 55 -4 73 -41 14 -30 14
-38 0 -85 -8 -29 -13 -60 -10 -70 10 -28 38 -82 44 -82 3 0 13 13 22 28 14 23
15 36 6 70 -11 42 -6 72 11 72 5 0 23 -11 39 -25 23 -19 30 -35 35 -77 7 -58
33 -91 101 -127 44 -23 56 -20 56 14 0 56 -55 132 -121 166 -43 21 -79 56 -79
76 0 17 81 18 127 1 41 -15 51 -6 29 26 -21 33 -68 45 -153 39 -77 -6 -107 9
-101 51 3 19 9 21 70 21 56 0 70 4 92 24 14 14 26 28 26 32 0 12 -98 49 -132
49 -18 0 -52 -7 -75 -16 -41 -16 -46 -16 -84 1 -45 21 -66 48 -46 62 6 5 45
29 84 52 87 52 136 58 164 21 10 -14 27 -37 38 -51 20 -26 148 -86 159 -74 3
3 -6 30 -21 60 -22 45 -37 60 -82 86 -30 17 -55 37 -55 44 0 24 43 45 90 45
44 0 47 -3 119 -81 70 -77 75 -80 83 -58 15 40 -1 78 -43 106 -87 57 -11 100
86 49 58 -32 83 -32 137 -5 l42 22 -29 23 c-17 13 -49 34 -72 46 l-42 22 -43
-21 c-82 -41 -148 -42 -148 -3 0 21 35 50 61 50 33 0 59 48 59 106 0 30 -3 54
-6 54 -13 0 -104 -72 -128 -101 -14 -16 -28 -46 -32 -67 -3 -20 -13 -48 -21
-60 -16 -26 -97 -67 -113 -57 -17 11 -11 49 15 87 14 21 28 52 31 70 4 22 24
50 58 83 28 28 66 71 85 95 39 52 141 139 189 164 44 23 215 33 265 17 44 -15
67 -44 67 -87 0 -33 -16 -52 -67 -78 -18 -9 -41 -33 -52 -54 -24 -47 -46 -120
-38 -128 3 -3 24 4 46 17 31 17 49 39 76 91 30 56 41 69 58 66 26 -4 39 -49
35 -125 -3 -54 -5 -58 -48 -88 -30 -20 -56 -51 -77 -91 -41 -74 -41 -86 -5
-78 25 6 44 22 99 88 30 36 60 34 68 -3 8 -36 -11 -76 -62 -132 l-36 -40 25
-75 c14 -41 29 -76 34 -76 5 -1 28 32 52 73 41 71 43 76 36 129 -14 100 -11
144 8 148 12 2 25 -9 39 -33 24 -40 52 -55 102 -55 73 1 73 36 0 100 -30 27
-60 42 -86 47 -21 3 -49 15 -62 27 -23 22 -61 138 -50 156 14 23 65 10 105
-26 22 -20 43 -35 45 -32 11 11 -20 83 -52 119 -27 29 -50 43 -97 57 -52 15
-64 23 -81 55 -19 35 -19 37 -3 54 14 14 36 17 110 18 130 0 175 -15 237 -81
60 -63 159 -130 173 -116 6 6 4 23 -6 45 -11 27 -28 43 -65 62 -28 14 -51 32
-51 40 0 39 129 45 178 8 22 -16 28 -30 32 -74 6 -63 36 -119 63 -119 17 0 18
6 14 47 -2 27 -10 63 -18 80 -33 79 54 63 126 -22 33 -38 59 -58 91 -69 38
-13 46 -13 50 -1 22 56 -88 164 -168 166 -69 2 -93 12 -93 39 0 20 8 26 44 37
54 15 79 37 90 77 11 41 4 56 -25 56 -43 0 -88 -26 -126 -71 -81 -95 -70 -89
-152 -89 -43 0 -78 5 -82 11 -3 6 10 27 29 47 39 40 57 78 57 119 0 24 -2 25
-44 19 l-45 -7 -80 80 c-45 44 -81 84 -81 90 0 14 27 28 102 51 81 25 85 25
129 -6 53 -37 104 -41 159 -12 31 16 45 29 45 43 0 29 -59 55 -122 55 -45 0
-53 3 -53 19 0 26 63 79 103 86 19 4 51 2 71 -3 36 -10 68 -6 129 19 40 17 33
33 -26 57 -93 39 -140 26 -237 -63 -39 -36 -67 -54 -77 -51 -8 3 -17 6 -19 6
-9 0 -3 22 22 76 16 36 23 65 20 80 -9 34 -60 88 -77 82 -8 -3 -25 -34 -38
-69 l-24 -63 28 -82 c33 -96 31 -103 -50 -140 -92 -43 -117 -25 -75 53 27 51
25 163 -3 163 -19 0 -77 -51 -93 -81 -12 -24 -14 -46 -9 -95 5 -45 4 -69 -5
-79 -6 -8 -51 -26 -98 -40 -48 -15 -106 -40 -130 -57 -62 -43 -74 -34 -70 53
3 63 6 74 28 91 14 10 49 22 79 27 62 10 118 54 91 71 -26 17 -73 11 -127 -16
-65 -33 -89 -27 -78 19 4 17 7 45 7 60 -1 16 12 55 27 86 16 31 34 84 40 116
22 118 123 243 245 305 65 32 76 34 176 36 100 1 113 4 195 39 79 34 94 37
143 31 63 -7 107 -31 151 -82 37 -42 38 -57 6 -136 -28 -68 -31 -106 -12 -131
11 -16 15 -15 50 14 29 24 37 37 37 64 0 72 30 86 74 34 32 -38 33 -74 2 -130
-27 -50 -40 -117 -27 -138 7 -12 15 -8 40 17 25 24 31 39 31 71 0 33 4 41 18
41 37 0 55 -36 62 -118 3 -47 12 -87 23 -103 20 -30 71 -69 90 -69 31 0 31
120 -1 170 -9 14 -40 47 -69 73 -79 73 -67 103 27 72 55 -18 130 -13 130 10 0
28 -54 50 -137 55 -67 5 -88 11 -121 33 -77 54 -82 120 -7 84 46 -22 145 -23
145 -2 0 18 -56 55 -128 86 -45 19 -59 20 -89 11 -39 -12 -46 -10 -118 32 -67
39 -85 55 -79 71 8 20 79 45 129 45 37 0 52 -6 82 -34 58 -52 113 -86 139 -86
47 0 26 42 -43 86 -58 37 -60 48 -7 70 71 30 128 13 181 -53 32 -40 136 -103
149 -90 16 16 -32 91 -79 125 -26 19 -46 40 -44 46 2 6 24 15 48 20 39 7 54 5
116 -23 63 -27 143 -42 143 -25 0 18 -88 128 -112 140 -27 14 -33 13 -85 -10
-30 -15 -71 -26 -89 -26 -47 0 -45 31 6 86 22 24 40 49 40 57 0 22 -30 57 -49
57 -29 0 -111 -94 -111 -127 0 -15 -5 -44 -10 -64 -8 -30 -18 -40 -50 -53 -49
-20 -80 -21 -80 -3 0 8 14 34 31 57 20 27 34 60 37 87 4 38 2 43 -15 43 -31 0
-86 -42 -105 -80 -10 -19 -18 -52 -18 -72 0 -28 -6 -41 -22 -52 -13 -8 -117
-37 -233 -66 -115 -29 -221 -57 -235 -62 -26 -10 -226 -19 -247 -11 -18 7 -16
40 4 74 14 24 15 34 5 62 -7 18 -12 51 -12 73 0 55 -18 114 -46 151 -13 17
-24 36 -24 42 0 5 20 19 44 30 46 20 68 49 81 108 8 38 -1 73 -18 73 -7 0 -40
-13 -75 -30 -42 -20 -65 -37 -72 -55 -13 -34 -43 -32 -91 6 -48 38 -49 60 -6
109 61 71 102 125 138 181 40 62 82 96 134 110 48 13 90 -7 158 -74 35 -36 69
-59 94 -66 81 -23 98 -6 61 61 -33 61 -78 88 -145 88 -58 0 -79 19 -52 45 24
24 104 40 146 29 33 -8 41 -16 64 -64 32 -66 125 -152 140 -129 24 38 -1 111
-47 140 -36 22 -58 52 -47 63 16 15 49 3 89 -34 42 -39 45 -40 108 -37 64 2
65 2 59 27 -9 39 -29 66 -68 90 -37 23 -51 23 -132 0 -24 -7 -49 -10 -58 -6
-25 9 -17 41 16 65 l31 23 -6 92 c-4 50 -7 105 -6 121 1 85 -54 149 -123 144
-55 -3 -83 1 -103 15 -19 15 -19 15 3 37 14 14 38 23 70 26 55 6 88 25 80 47
-3 8 -36 21 -77 30 -68 16 -73 16 -115 -3 -39 -17 -46 -25 -56 -66 -13 -52
-29 -64 -99 -72 -46 -5 -50 -4 -50 15 0 14 11 27 29 36 32 17 41 34 41 77 0
54 -38 48 -110 -17 -29 -26 -40 -46 -45 -77 -8 -47 -48 -97 -78 -97 -11 0 -37
16 -58 35 -59 53 -69 48 -62 -27 l5 -63 -58 -56 c-58 -54 -196 -139 -227 -139
-26 0 -29 17 -17 91 15 99 30 125 77 132 35 6 113 58 113 76 0 4 -17 13 -37
19 -31 9 -40 9 -55 -5 -9 -8 -25 -13 -34 -9 -49 19 39 138 112 152 38 7 45 28
15 44 -35 18 -61 11 -95 -26 -40 -44 -60 -41 -82 11 -10 25 -13 51 -8 86 5 38
3 58 -11 83 -18 33 -18 34 10 82 44 75 121 150 188 184 67 33 104 37 147 15
35 -18 50 -43 50 -85 0 -23 14 -46 58 -94 31 -35 60 -65 63 -65 9 -1 17 56 11
84 -2 13 -20 42 -39 65 -20 23 -33 47 -29 55 7 20 78 20 115 0 26 -13 29 -20
35 -92 11 -123 20 -178 31 -178 16 0 75 95 75 122 0 13 -9 41 -20 62 -21 42
-18 51 15 51 30 0 55 -30 62 -76 8 -55 28 -89 69 -120 29 -23 37 -25 45 -13
13 19 1 125 -18 166 -14 31 -30 40 -140 78 -16 5 -17 51 -3 60 6 4 22 24 36
46 23 37 27 39 74 39 75 0 203 -44 234 -81 23 -27 56 -113 56 -145 0 -27 40
-104 54 -104 22 0 39 71 26 105 -5 14 -10 28 -10 31 0 8 41 4 59 -6 28 -14 32
-35 16 -87 -8 -27 -15 -64 -15 -84 0 -20 -5 -50 -11 -68 -6 -18 -9 -34 -6 -37
10 -10 46 21 73 63 15 24 33 43 40 43 17 0 28 -41 21 -83 -3 -17 -8 -51 -12
-74 -6 -34 -2 -51 20 -97 15 -31 31 -56 36 -56 5 0 18 18 29 40 30 59 26 114
-15 203 -19 42 -35 83 -35 92 0 28 29 28 66 -1 73 -59 98 -74 125 -74 37 0 38
19 2 76 -35 55 -85 83 -166 92 -57 7 -70 13 -121 56 -31 27 -56 57 -56 67 0
16 8 19 57 19 62 0 125 18 120 34 -5 16 -106 74 -150 88 -35 10 -40 9 -81 -20
-24 -18 -52 -32 -61 -32 -8 0 -52 16 -96 37 -86 39 -98 59 -44 75 81 23 105
34 174 79 63 42 81 49 123 49 42 0 54 -5 91 -39 57 -52 97 -71 151 -71 39 0
44 3 39 18 -11 32 -66 82 -110 98 -58 22 -58 49 -2 64 63 17 114 5 148 -37 30
-36 117 -103 134 -103 6 0 7 18 4 42 -4 32 -14 49 -43 73 -45 38 -41 60 11 69
30 6 49 1 102 -24 93 -45 116 -40 226 52 21 17 29 30 22 36 -5 6 -59 16 -119
23 -104 13 -111 12 -170 -9 -33 -12 -67 -22 -73 -22 -26 0 -12 42 27 84 22 24
40 48 40 54 0 13 -101 27 -136 18 -18 -5 -31 -19 -45 -54 -47 -114 -59 -131
-98 -137 -20 -4 -57 -16 -84 -27 -58 -26 -76 -17 -58 33 18 53 14 95 -14 126
l-25 28 -20 -23 c-26 -31 -43 -96 -35 -133 4 -16 4 -37 0 -48 -10 -33 -173
-120 -257 -137 -104 -22 -208 -5 -259 43 -14 13 -42 26 -63 30 -20 3 -39 10
-42 15 -11 18 7 59 31 70 20 9 33 6 78 -17 57 -30 104 -30 143 0 18 14 18 15
1 29 -10 8 -46 22 -79 32 -33 10 -63 25 -66 33 -8 20 41 58 91 71 95 24 110
43 122 154 9 77 15 76 -75 15 -70 -47 -94 -74 -110 -122 -15 -49 -56 -97 -82
-97 -19 0 -20 4 -13 48 15 93 6 122 -49 160 -43 30 -70 30 -62 0 3 -13 11 -54
16 -92 6 -38 19 -84 30 -101 26 -42 26 -87 -1 -111 -20 -18 -21 -18 -35 1 -8
10 -14 28 -14 40 0 31 -26 63 -71 85 l-39 20 0 -65 c0 -73 7 -91 57 -149 73
-87 34 -138 -161 -210 -202 -74 -203 -75 -298 -179 -94 -102 -166 -157 -206
-157 -23 0 -24 2 -18 42 3 24 11 86 17 137 12 116 36 189 99 306 51 97 70 164
70 251 0 62 15 76 55 50 33 -22 68 -20 96 4 l24 21 -24 17 c-14 9 -43 24 -65
32 -48 18 -58 46 -26 75 17 16 24 17 38 7 38 -27 93 -52 113 -52 23 0 89 37
89 50 0 13 -28 32 -67 45 -29 10 -39 19 -41 38 -4 34 16 39 76 20 47 -15 54
-15 95 1 68 26 82 38 68 64 -16 30 -81 72 -111 72 -17 0 -39 -14 -64 -41 -32
-33 -44 -40 -70 -37 -30 3 -31 5 -36 59 -3 36 -12 65 -24 78 -18 20 -20 20
-38 4 -33 -30 -43 -84 -24 -140 18 -55 15 -72 -21 -120 -29 -40 -51 -42 -58
-5 -16 74 -62 128 -102 120 -28 -6 -20 -71 23 -179 61 -152 57 -271 -13 -401
-29 -54 -49 -65 -74 -43 -29 27 -32 62 -8 95 20 26 21 34 11 68 -7 21 -22 47
-33 58 l-22 19 6 -36 c13 -84 -29 -76 -76 13 l-29 57 21 34 c30 49 27 79 -14
122 -48 52 -59 43 -63 -48 -2 -54 -7 -77 -16 -77 -17 0 -55 43 -95 108 -33 51
-34 52 -83 52 -44 0 -49 -2 -42 -17 4 -10 8 -34 8 -53 1 -46 11 -60 44 -60 69
0 142 -39 142 -75 0 -11 -11 -15 -38 -15 -47 0 -72 -24 -72 -70 0 -31 1 -32
32 -26 18 4 54 18 81 31 54 29 68 25 111 -26 39 -46 29 -77 -19 -58 -35 13
-74 10 -115 -11 -22 -11 -40 -24 -40 -29 0 -5 23 -18 51 -30 49 -21 52 -22 99
-6 73 24 89 18 113 -40 23 -57 29 -177 10 -196 -27 -27 -96 13 -95 57 0 16 -5
37 -10 47 -19 36 -108 75 -108 48 0 -6 16 -38 36 -72 33 -55 35 -63 21 -76
-13 -13 -23 -14 -59 -5 -36 9 -45 8 -60 -5 -16 -14 -48 -99 -48 -125 0 -16 27
-7 50 17 40 43 53 34 45 -33 -7 -66 7 -121 28 -104 13 11 52 91 81 164 31 79
115 50 102 -35 -4 -21 -20 -67 -37 -103 -35 -73 -85 -117 -153 -134 -80 -21
-162 -52 -219 -86 -32 -19 -64 -34 -71 -34 -10 0 -13 31 -10 141 3 146 6 158
46 159 52 0 96 57 117 150 8 36 7 40 -11 40 -30 0 -82 -35 -98 -65 -16 -30
-45 -49 -60 -40 -15 9 -12 71 4 110 14 33 18 35 60 35 56 0 98 32 115 90 7 23
10 44 7 47 -3 3 -25 -4 -49 -16 -56 -27 -107 -28 -107 -3 0 22 22 43 70 67 41
21 50 32 50 65 0 35 -31 111 -44 107 -6 -2 -33 -35 -60 -74 -39 -58 -51 -85
-60 -140 -13 -80 -35 -91 -64 -33 -14 30 -80 79 -104 80 -14 0 -8 -79 8 -119
9 -24 31 -50 55 -67 46 -32 69 -70 69 -113 0 -45 -19 -48 -54 -8 -17 19 -46
40 -63 45 -32 11 -33 10 -33 -19 0 -52 25 -96 68 -118 45 -23 67 -67 52 -105
-10 -28 -154 -110 -177 -102 -11 5 -13 15 -8 45 7 41 -9 85 -40 111 -14 12
-18 12 -26 -1 -15 -24 -10 -106 11 -159 11 -28 20 -64 20 -81 0 -40 -27 -50
-51 -18 -38 51 -49 59 -84 59 -42 0 -43 -9 -7 -75 22 -40 35 -53 66 -63 52
-17 66 -29 66 -59 0 -67 -53 -123 -119 -123 -34 0 -147 90 -162 128 -24 63 11
203 76 303 63 97 121 206 140 264 9 28 21 93 26 145 5 52 18 138 29 190 27
133 43 325 45 530 1 96 7 242 13 324 11 137 14 153 39 189 33 48 95 102 147
129 l39 20 26 -21 c58 -47 128 -61 185 -37 22 9 36 21 34 28 -6 18 -115 78
-157 86 -19 4 -36 13 -38 19 -8 22 84 109 127 122 54 16 70 49 70 145 0 45 -4
78 -11 82 -7 4 -30 -13 -56 -42 -63 -70 -83 -104 -83 -142 0 -40 -32 -105 -62
-126 -31 -22 -39 -4 -25 62 11 52 4 83 -18 86 -15 2 -54 -106 -64 -179 -5 -36
-15 -73 -22 -81 -21 -25 -98 -66 -110 -59 -15 10 -8 59 25 180 40 149 65 193
169 298 51 50 112 117 136 147 104 129 198 206 286 237 40 13 50 13 98 -1 98
-29 164 -120 182 -253 8 -63 0 -93 -25 -93 -24 0 -86 -54 -106 -91 -7 -15 -14
-40 -14 -56 l0 -27 38 36 c38 38 96 68 132 68 16 0 20 -6 20 -34 0 -48 -34
-85 -85 -92 -62 -9 -85 -24 -111 -76 -13 -26 -24 -50 -24 -53 0 -22 120 18
150 51 48 50 66 15 31 -61 -28 -64 -31 -87 -17 -148 15 -63 39 -97 68 -97 19
0 78 81 78 107 0 8 -16 45 -35 83 -35 70 -46 142 -25 155 15 9 40 -14 40 -35
0 -41 82 -110 130 -110 20 0 19 4 -16 68 -20 37 -59 90 -86 118 -38 39 -50 59
-51 85 -3 52 31 52 73 -1 54 -69 124 -90 171 -52 l22 19 -54 40 c-63 47 -97
65 -174 94 -30 11 -62 30 -69 42 -8 12 -19 58 -25 102 -6 44 -14 90 -17 102
-9 33 14 37 87 19 84 -22 91 -29 73 -71 -10 -26 -11 -41 -3 -62 11 -29 37 -63
49 -63 4 0 15 38 25 85 10 47 22 88 27 91 16 10 55 -5 62 -23 4 -9 -3 -35 -15
-58 -29 -54 -20 -106 26 -152 18 -18 38 -33 44 -33 21 0 31 118 16 188 -6 28
-5 32 13 32 36 0 71 -39 88 -96 22 -75 62 -119 130 -141 29 -9 57 -13 61 -10
12 13 -47 161 -75 190 -17 16 -50 34 -83 42 -97 26 -97 75 0 75 72 0 141 56
141 115 0 28 -91 -3 -154 -54 -48 -39 -109 -56 -156 -45 -47 12 -55 50 -13 60
53 13 83 34 103 74 21 41 26 70 11 70 -5 0 -35 -12 -67 -26 -40 -18 -76 -44
-116 -87 l-57 -62 -73 2 c-54 1 -97 10 -162 34 -92 33 -159 80 -141 97 6 5 54
17 108 26 90 15 104 21 190 77 126 83 171 105 322 154 216 71 313 81 399 40
52 -25 72 -62 80 -147 7 -81 23 -112 80 -157 46 -36 52 -38 59 -11 11 43 -11
93 -62 140 -46 42 -51 51 -51 88 0 36 3 42 20 42 32 0 96 -77 142 -170 38 -78
42 -92 43 -164 0 -84 -3 -89 -56 -100 -30 -6 -59 -56 -59 -100 0 -35 23 -34
78 4 48 32 67 31 76 -6 9 -34 -1 -49 -57 -84 -73 -46 -98 -132 -50 -172 13
-11 18 -10 27 6 22 37 58 76 71 76 21 0 26 -29 10 -67 -24 -58 -19 -87 21
-123 20 -17 52 -39 71 -48 42 -20 53 -9 53 55 0 36 -7 50 -50 99 -53 60 -68
90 -53 105 15 15 36 2 60 -35 18 -28 32 -36 73 -45 63 -13 83 -14 78 -1 -6 18
-123 132 -166 162 -44 30 -62 60 -62 103 0 43 21 39 70 -14 45 -49 51 -52 91
-49 24 2 44 9 47 16 6 20 -75 92 -133 118 -76 35 -94 59 -117 160 -11 49 -22
99 -25 112 -6 27 19 30 72 7 20 -8 71 -24 115 -36 99 -26 109 -37 75 -77 -37
-45 -45 -72 -28 -105 13 -25 86 -87 104 -87 4 0 7 44 6 98 l-2 97 26 3 c14 2
37 -6 53 -19 24 -19 27 -27 21 -53 -13 -61 -7 -98 23 -140 49 -67 51 -64 67
87 6 51 9 57 29 57 22 0 66 -33 66 -49 0 -5 -7 -26 -16 -47 -10 -24 -14 -53
-11 -77 9 -69 106 -180 128 -146 17 27 9 106 -16 160 -33 73 -19 82 48 32 50
-38 62 -57 111 -162 20 -44 67 -62 179 -71 83 -7 105 -6 117 6 13 12 11 16
-10 31 -14 9 -52 45 -85 80 -84 89 -109 103 -176 103 -46 0 -59 4 -79 24 -29
32 -21 56 21 56 37 0 99 28 99 44 0 23 -57 67 -93 73 -22 3 -61 -1 -96 -11
-58 -16 -79 -15 -148 6 -25 7 -33 15 -33 33 0 28 17 35 79 35 26 0 54 6 63 13
24 18 58 79 58 104 0 22 -1 22 -42 8 -24 -8 -60 -17 -80 -20 -29 -5 -47 -17
-75 -51 -48 -57 -93 -73 -146 -50 -57 23 -51 51 17 70 33 10 62 26 75 41 23
30 38 102 23 117 -14 14 -151 -75 -187 -123 -16 -22 -39 -42 -50 -45 -30 -7
-180 31 -228 59 -23 13 -82 49 -132 79 -49 31 -117 72 -149 92 -47 28 -70 36
-107 36 -56 0 -79 7 -79 25 0 38 172 215 208 215 12 0 13 -5 32 -103 10 -49
16 -60 38 -68 33 -13 92 -23 92 -17 0 3 -11 25 -24 49 -13 24 -27 55 -31 69
-4 14 -19 42 -34 64 l-25 38 24 20 c14 12 35 18 54 16 29 -3 31 -6 38 -53 6
-40 14 -57 44 -84 22 -21 39 -30 42 -23 2 6 -1 44 -8 84 -13 83 -7 93 45 84
l37 -7 -7 -75 c-6 -59 -4 -79 8 -98 16 -23 102 -64 113 -54 3 3 -2 21 -10 39
-29 67 -44 134 -34 146 15 19 45 -1 68 -48 32 -61 69 -79 168 -79 102 0 104 7
23 90 l-59 60 -69 0 c-71 0 -93 10 -93 42 0 13 13 21 44 29 29 7 57 25 86 54
52 53 47 70 -20 61 -89 -12 -151 -36 -195 -77 -32 -29 -50 -39 -76 -39 -69 0
-77 37 -15 77 23 14 40 39 56 77 12 31 20 60 16 63 -13 13 -85 -18 -125 -55
-30 -26 -48 -53 -60 -92 -18 -55 -18 -55 -85 -79 -37 -13 -70 -20 -74 -17 -3
4 0 26 7 49 23 74 25 135 6 178 -30 66 -53 47 -91 -73 -17 -57 -17 -58 4 -102
38 -75 34 -85 -84 -211 -113 -121 -162 -154 -284 -194 -97 -31 -196 -52 -215
-45 -9 4 -25 24 -36 45 -11 22 -37 50 -58 64 -22 13 -42 29 -46 35 -4 6 1 33
10 61 16 47 16 51 -1 77 -20 31 -44 51 -61 52 -20 0 -25 -62 -9 -109 22 -60
20 -71 -9 -71 -17 0 -43 16 -73 44 -26 24 -57 47 -70 50 -29 10 -82 -2 -82
-18 0 -21 54 -64 90 -71 43 -9 60 -22 60 -45 0 -11 -10 -20 -27 -25 -54 -13
-91 -37 -103 -66 -18 -42 -7 -59 36 -59 30 0 45 9 98 60 56 54 67 60 105 60
23 0 53 -7 66 -16 25 -16 51 -76 40 -94 -6 -10 -133 -107 -175 -133 -14 -8
-68 -25 -120 -37 -201 -47 -229 -58 -285 -111 -59 -55 -85 -63 -85 -23 0 45
40 160 77 221 55 91 73 130 114 241 61 169 97 204 243 242 42 10 96 31 119 45
59 34 81 32 98 -6 8 -20 25 -37 45 -45 37 -15 124 -19 124 -6 0 20 -59 94 -93
118 -20 13 -37 29 -37 34 0 15 81 70 102 70 12 0 24 -12 34 -35 8 -20 29 -44
47 -55 32 -20 92 -27 101 -12 3 4 -20 36 -50 69 -30 34 -54 66 -54 72 0 19 45
12 102 -14 78 -36 108 -33 152 15 20 22 36 45 36 51 0 13 -78 48 -107 49 -12
0 -47 -11 -77 -25 -62 -28 -88 -31 -105 -11 -9 11 -7 24 9 57 22 45 20 66 -12
112 -11 15 -9 21 20 43 17 14 32 31 32 37 0 12 -82 45 -136 54 -24 4 -38 -2
-73 -32 -57 -47 -81 -59 -92 -48 -14 14 7 181 26 210 14 21 21 23 64 17 37 -5
56 -2 88 14 64 33 93 74 93 133 0 27 -1 49 -2 49 -7 -1 -148 -77 -171 -93 -14
-10 -31 -16 -38 -12 -19 12 -3 82 27 122 36 48 35 85 -7 164 -39 72 -54 82
-64 42 -3 -15 -20 -49 -37 -75 -45 -72 -47 -114 -8 -170 36 -51 44 -108 18
-134 -18 -19 -23 -15 -68 59 l-30 47 -65 0 c-47 0 -65 -4 -65 -13 0 -21 55
-68 117 -102 77 -41 95 -73 85 -151 -6 -54 -9 -59 -32 -59 -23 0 -25 4 -30 62
-6 74 -18 89 -92 114 -45 15 -53 16 -56 3 -7 -31 22 -86 79 -149 50 -55 59
-71 59 -103 0 -49 -36 -124 -94 -195 -26 -31 -60 -87 -75 -125 -46 -110 -53
-122 -71 -122 -27 0 -42 48 -48 153 -4 87 -2 102 15 125 28 39 53 107 53 145
-1 39 -36 110 -43 87 -3 -8 -13 -38 -22 -67 -16 -53 -37 -79 -53 -69 -5 3 -22
35 -37 71 -26 61 -27 68 -14 108 21 66 12 111 -33 162 -27 32 -105 82 -113 73
-2 -2 4 -32 11 -68 26 -117 27 -130 15 -130 -22 0 -55 22 -108 71 -44 42 -58
49 -93 49 -44 0 -165 -54 -155 -69 2 -5 32 -23 65 -40 59 -31 60 -31 131 -19
66 10 73 10 85 -7 17 -23 11 -32 -31 -49 -35 -15 -65 -59 -65 -96 0 -20 0 -20
38 -2 22 12 70 22 118 25 75 6 83 4 101 -16 40 -44 56 -98 32 -112 -6 -4 -33
7 -60 24 -35 21 -63 31 -91 31 -41 0 -94 -24 -102 -47 -10 -26 109 -55 185
-46 43 5 50 3 85 -30 37 -33 38 -37 39 -103 1 -38 5 -99 10 -136 9 -74 -4
-157 -37 -245 -16 -43 -24 -53 -43 -53 -13 0 -30 10 -40 26 -16 25 -16 27 12
56 24 25 28 37 27 81 0 29 -6 63 -13 76 l-14 25 -20 -40 c-11 -21 -26 -57 -32
-79 -14 -45 -41 -58 -62 -29 -20 27 -16 70 12 114 40 64 28 132 -31 179 -46
37 -54 29 -54 -53 0 -42 -5 -78 -11 -81 -19 -12 -54 4 -107 50 -49 41 -58 45
-105 45 -59 0 -127 -16 -127 -30 0 -5 10 -15 23 -21 42 -22 136 -94 136 -105
1 -5 -15 -25 -34 -44 -19 -19 -35 -37 -35 -41 0 -4 26 -7 58 -6 93 1 210 -17
228 -35 25 -25 10 -52 -24 -44 -15 3 -51 9 -80 12 -49 6 -55 5 -83 -22 -70
-66 -61 -84 42 -84 55 0 77 5 124 30 63 33 73 35 108 19 74 -34 74 -144 0
-230 -43 -49 -63 -92 -63 -136 0 -105 -94 -323 -139 -323 -19 0 -51 29 -51 48
0 6 18 32 40 57 30 35 40 55 40 82 0 34 -32 93 -50 93 -18 0 -40 -60 -40 -110
0 -36 -4 -50 -14 -50 -18 0 -33 19 -41 52 -4 15 -15 34 -25 43 -23 21 -100 33
-100 16 0 -22 50 -86 80 -104 20 -12 30 -26 30 -42 0 -22 -4 -24 -47 -22 -63
2 -98 -18 -130 -72 l-26 -44 24 7 c13 4 51 11 83 17 33 5 72 17 87 26 32 19
52 13 74 -21 25 -37 12 -61 -80 -156 -52 -54 -94 -108 -114 -147 -17 -34 -36
-65 -42 -68 -6 -4 -25 7 -43 24 -35 34 -81 51 -137 51 -43 0 -72 20 -67 46 2
15 14 20 57 24 46 5 58 11 82 40 16 19 29 43 29 53 0 17 -5 18 -62 12 -74 -9
-108 -24 -140 -64 l-23 -29 -107 5 c-131 7 -134 13 -47 98 33 33 79 87 101
120 48 71 87 115 103 115 6 0 26 -11 45 -25 40 -30 95 -33 126 -7 21 17 80 92
73 92 -62 5 -154 10 -186 9 -51 0 -53 8 -14 64 16 24 36 59 44 79 8 19 20 39
26 42 6 4 32 -3 59 -14 43 -18 55 -20 91 -10 45 12 87 58 97 107 l6 30 -59 -5
c-32 -2 -76 -13 -97 -24 -54 -27 -62 -15 -46 64 16 75 19 83 65 137 22 28 35
53 35 72 0 39 -29 109 -45 109 -15 0 -79 -84 -94 -122 -7 -18 -5 -35 10 -67
22 -49 24 -75 8 -120 -8 -23 -17 -31 -35 -31 -22 0 -24 4 -24 43 0 35 -6 49
-30 72 -27 26 -40 30 -101 33 -70 4 -71 4 -60 -17 7 -11 16 -21 20 -21 5 0 21
-20 35 -45 15 -25 47 -65 71 -89 54 -53 57 -79 18 -156 -44 -85 -82 -92 -83
-15 0 56 -67 128 -138 150 -23 7 -24 6 -17 -49 8 -61 10 -59 -70 -82 -38 -12
-55 -46 -55 -112 0 -96 -63 -145 -76 -59 -9 52 -59 107 -99 107 -18 0 -25 -4
-22 -12 33 -85 45 -109 69 -147 34 -54 34 -64 7 -107 -16 -26 -22 -57 -26
-131 l-6 -98 -108 -108 c-88 -89 -116 -124 -149 -190 -50 -98 -87 -139 -158
-174 -68 -33 -82 -24 -63 45 21 74 29 128 40 257 14 172 25 207 78 258 59 56
91 112 100 176 8 50 10 54 48 67 60 20 86 67 69 126 l-9 30 -48 -37 c-56 -42
-78 -42 -90 2 -14 46 -3 77 33 90 18 7 34 23 41 40 11 29 5 111 -10 126 -11
11 -59 -48 -82 -100 -10 -24 -25 -43 -32 -43 -24 0 -47 34 -56 84 -11 59 -31
81 -88 95 -51 13 -59 11 -44 -16 6 -10 17 -35 25 -55 10 -26 26 -43 54 -57 36
-18 52 -37 52 -62 0 -5 -31 -6 -73 -3 -59 5 -75 4 -85 -9 -20 -24 27 -50 96
-54 32 -2 67 -6 79 -9 31 -6 63 -43 63 -72 0 -20 -4 -23 -22 -19 -67 17 -80
19 -103 13 -14 -4 -25 -10 -25 -14 0 -4 34 -30 75 -57 82 -54 98 -81 74 -124
-22 -38 -79 -74 -95 -60 -8 6 -14 19 -14 28 0 10 -7 42 -16 72 -13 44 -28 66
-83 119 -37 36 -81 88 -97 115 -26 45 -29 58 -28 135 0 48 8 110 17 141 18 62
101 183 120 177 7 -2 22 -25 35 -51 23 -48 78 -87 123 -87 17 0 20 4 15 23
-12 48 -37 97 -66 131 -28 31 -29 35 -15 50 9 9 27 16 39 16 24 0 27 -4 69
-101 24 -55 46 -73 115 -94 34 -10 38 18 8 75 -14 27 -26 54 -26 60 0 18 33
11 72 -16 32 -22 45 -26 84 -21 48 5 97 33 102 58 1 8 -19 27 -45 44 -43 27
-55 29 -142 31 -143 2 -183 27 -125 77 47 39 64 60 64 79 0 28 -29 78 -44 78
-25 0 -91 -85 -104 -134 -13 -50 -50 -93 -89 -102 -34 -9 -39 1 -25 53 12 44
11 49 -15 91 -15 25 -33 47 -39 49 -15 5 -44 -69 -44 -113 0 -20 7 -61 16 -91
l16 -54 -28 -40 c-40 -58 -74 -83 -90 -67 -9 10 -8 34 3 108 41 281 81 371
232 520 116 115 183 161 276 189 92 27 220 44 268 37 47 -8 117 -42 117 -58 0
-6 -18 -31 -41 -55 -39 -43 -41 -47 -34 -91 4 -26 9 -49 11 -51 9 -9 46 36 70
86 30 61 57 68 83 22 21 -37 8 -72 -39 -103 -35 -23 -40 -31 -40 -64 0 -56 28
-142 46 -142 24 0 56 61 50 97 -6 42 16 72 41 57 10 -6 22 -26 26 -45 5 -19
13 -45 19 -59 11 -30 115 -103 134 -96 17 6 19 78 4 107 -6 10 -33 30 -60 44
-54 27 -80 57 -80 92 0 29 26 30 60 3 26 -20 130 -29 130 -11 0 5 -19 26 -43
48 -33 31 -54 41 -91 46 -57 8 -100 37 -114 76 -16 46 1 52 68 28 l59 -22 43
31 c24 16 44 37 46 46 7 36 -129 51 -208 23 -59 -21 -85 -19 -133 9 -23 14
-62 28 -87 32 -59 9 -80 20 -80 44 0 23 30 34 73 24 53 -11 86 -7 130 19 48
28 94 74 84 83 -3 4 -35 -1 -71 -10 -134 -33 -158 -15 -82 60 l43 44 82 0
c112 0 177 34 147 76 -12 15 -27 19 -79 19 -36 0 -68 3 -72 7 -16 16 8 59 48
87 91 63 126 120 107 177 -13 37 -39 50 -70 34 -28 -15 -68 -98 -76 -159 -5
-36 -16 -64 -38 -91 -52 -64 -71 -64 -81 3 -16 101 -39 132 -63 85 -31 -60
-32 -77 -12 -131 11 -28 20 -65 20 -82 0 -40 -36 -97 -58 -93 -18 4 -20 24 -8
71 6 25 1 34 -32 68 -22 21 -44 39 -50 39 -6 0 -17 -18 -23 -40 -11 -35 -9
-48 15 -120 l28 -80 -21 -43 c-19 -40 -79 -87 -110 -87 -6 0 -59 -21 -118 -47
-96 -42 -117 -56 -194 -130 -97 -93 -119 -102 -119 -47 0 37 12 52 94 117 38
30 56 75 56 140 0 20 -4 37 -10 37 -5 0 -27 -24 -48 -53 -74 -100 -93 -99
-100 7 l-4 63 33 12 c66 23 81 54 58 120 -14 40 -28 36 -57 -17 -37 -65 -76
-49 -70 29 3 39 7 45 48 69 55 32 90 89 90 148 0 37 -3 42 -23 42 -31 0 -61
-23 -97 -75 -17 -25 -37 -45 -45 -45 -7 0 -23 25 -35 57 -17 45 -19 62 -10 86
21 61 -42 129 -142 153 -25 5 -28 3 -28 -19 0 -55 42 -138 92 -180 73 -64 62
-99 -19 -58 -57 29 -83 35 -83 19 1 -28 71 -108 123 -139 56 -33 87 -72 87
-107 0 -35 -18 -34 -58 3 -30 26 -48 35 -75 35 -20 0 -38 -4 -41 -8 -11 -18
49 -74 109 -101 65 -30 103 -67 85 -85 -7 -7 -21 -6 -43 2 -18 6 -55 15 -82
18 l-48 7 24 -43 c13 -25 49 -63 81 -88 77 -58 88 -92 65 -200 -9 -42 -37
-119 -62 -171 -33 -69 -48 -115 -56 -170 -13 -96 -17 -111 -34 -111 -21 0 -83
92 -105 156 -11 32 -31 77 -45 100 -34 58 -32 98 5 141 18 20 30 45 30 61 0
29 -54 132 -69 132 -13 0 -21 -27 -21 -69 0 -46 -21 -80 -36 -59 -16 20 -44
96 -44 119 0 11 9 37 20 59 20 39 27 129 14 164 -19 50 -64 -28 -64 -111 0
-55 -2 -63 -19 -63 -28 0 -77 45 -108 99 -39 69 -53 81 -88 81 -36 0 -135 -27
-135 -37 0 -23 54 -57 130 -80 90 -27 133 -51 151 -85 8 -15 8 -23 0 -31 -8
-8 -25 -4 -64 17 -48 26 -55 27 -95 17 -23 -7 -40 -16 -37 -21 13 -21 94 -59
150 -70 80 -16 110 -33 145 -82 51 -70 36 -92 -40 -59 -46 20 -83 21 -114 3
-14 -8 104 -70 146 -77 48 -8 83 -36 109 -87 34 -66 -5 -74 -69 -14 -12 11
-64 41 -115 66 -84 41 -92 48 -95 76 -4 39 -37 70 -126 118 l-69 37 7 -43 c7
-46 34 -81 79 -104 26 -14 36 -38 20 -47 -5 -2 -52 -7 -105 -11 -93 -7 -98 -6
-115 15 -43 54 -73 79 -95 79 -29 0 -128 -48 -128 -61 0 -13 79 -49 108 -49
27 0 39 -24 22 -45 -7 -8 -28 -17 -49 -20 -71 -12 -83 -16 -107 -40 -18 -18
-24 -35 -24 -70 0 -25 2 -45 4 -45 24 0 80 31 113 63 28 27 47 38 58 33 17 -6
16 -14 -2 -93 -15 -64 75 15 122 106 33 66 64 86 134 86 69 0 75 -19 17 -51
-41 -23 -85 -89 -69 -105 11 -11 86 24 136 64 89 72 132 76 222 18 81 -52 210
-173 242 -228 34 -58 63 -154 63 -209 0 -40 -2 -44 -24 -44 -13 0 -29 7 -36
15 -6 8 -32 26 -57 41 l-46 26 6 64 c4 36 2 75 -3 89 -12 30 -48 54 -94 62
l-36 6 0 -55 c0 -42 6 -62 25 -88 47 -64 28 -81 -53 -49 -78 31 -92 45 -92 88
0 44 -39 105 -81 126 -31 17 -122 25 -135 13 -13 -14 48 -87 97 -118 48 -29
65 -62 37 -73 -7 -3 -56 -3 -108 0 -88 5 -98 3 -130 -19 -40 -27 -71 -103 -63
-155 8 -52 33 -41 118 52 55 61 84 85 100 85 37 0 38 -15 6 -62 -42 -61 -48
-88 -21 -88 25 0 110 42 167 83 60 43 147 38 130 -7 -4 -9 -18 -16 -32 -16
-46 0 -85 -61 -85 -131 0 -14 7 -19 25 -19 45 0 91 26 130 75 52 62 75 70 131
45 52 -22 77 -67 93 -167 14 -87 43 -137 127 -219 102 -99 129 -158 128 -279
-1 -137 -49 -282 -85 -259 -5 3 -9 21 -9 41 0 58 -34 105 -108 149 -36 21 -69
41 -74 42 -27 12 20 -164 52 -193 38 -34 26 -52 -50 -75 -42 -12 -70 -26 -70
-34 0 -8 15 -27 34 -43 31 -28 40 -30 136 -36 74 -4 107 -10 118 -21 28 -28
19 -81 -31 -176 -54 -104 -83 -240 -71 -342 8 -71 -4 -75 -70 -24 -58 44 -143
84 -203 96 -57 10 -174 54 -209 76 -38 26 -31 58 21 94 25 17 49 39 55 50 15
29 13 150 -3 150 -18 0 -91 -78 -108 -115 -16 -34 -42 -40 -47 -11 -2 10 6 58
18 108 22 91 21 122 -6 163 -17 26 -100 69 -114 60 -6 -4 -10 -35 -10 -70 0
-58 3 -67 40 -116 35 -47 40 -60 40 -106 0 -45 -3 -53 -18 -53 -10 0 -29 11
-42 25 -19 21 -33 25 -77 25 -72 0 -77 -17 -26 -78 31 -36 52 -51 96 -65 43
-14 61 -26 77 -52 11 -18 27 -36 36 -39 9 -4 14 -15 12 -28 -3 -20 -10 -23
-58 -26 -46 -2 -62 1 -90 22 -19 14 -51 34 -70 45 -55 30 -70 54 -97 148 l-25
87 51 47 c56 52 65 76 59 155 -4 43 -11 61 -31 82 -31 30 -34 28 -72 -43 -22
-42 -25 -58 -20 -101 5 -38 2 -54 -9 -63 -12 -10 -22 -2 -60 50 -25 35 -46 68
-46 74 0 6 20 31 45 55 34 33 45 52 45 75 0 43 -17 100 -38 125 l-18 23 -42
-71 c-30 -51 -42 -82 -42 -110 0 -58 -15 -65 -83 -37 -148 60 -147 69 34 253
87 87 148 142 158 140 10 -2 17 -15 19 -34 4 -39 56 -91 100 -100 l32 -6 0 56
c0 56 -1 57 -45 88 -25 18 -45 38 -45 45 0 21 49 35 90 26 34 -8 35 -10 38
-58 1 -28 4 -60 7 -72 5 -22 97 -103 117 -103 15 0 0 59 -33 124 -22 43 -27
62 -19 70 19 19 82 -24 117 -79 63 -99 63 -99 139 -103 101 -4 106 4 50 77
-52 68 -64 76 -121 86 -113 21 -179 105 -83 105 42 0 80 42 76 82 -2 27 -9 34
-35 42 -48 13 -90 -8 -124 -64 -27 -44 -33 -48 -80 -54 -29 -4 -64 -9 -78 -12
-14 -2 -33 0 -41 5 -12 8 -9 17 18 55 35 48 38 73 21 142 -15 58 -42 56 -83
-8 -14 -22 -16 -39 -11 -95 6 -62 5 -75 -18 -119 -37 -72 -81 -110 -123 -105
-7 1 -13 39 -17 99 -6 84 -13 125 -43 229 -4 15 1 27 17 40 13 10 40 34 61 54
33 32 38 43 38 82 0 38 -5 49 -31 71 -45 38 -59 34 -59 -18 0 -59 -15 -98 -37
-94 -14 3 -70 89 -72 110 -1 4 22 31 49 59 54 56 60 78 38 151 -14 48 -26 54
-72 38 -42 -14 -50 -34 -41 -106 6 -53 6 -54 -20 -54 -35 0 -77 33 -117 91
-19 29 -45 53 -62 59 -53 18 -166 10 -166 -12 0 -15 80 -85 123 -108 20 -11
37 -25 37 -30 0 -5 -18 -21 -40 -37 -22 -15 -42 -34 -44 -40 -8 -20 88 -43
177 -43 75 0 80 -1 108 -31 29 -32 39 -79 17 -79 -7 0 -24 9 -38 20 -16 13
-41 20 -70 20 -45 0 -53 -4 -138 -63 -35 -25 -47 -28 -81 -22 -26 4 -48 16
-60 31 -10 13 -23 24 -27 24 -5 0 -17 -27 -27 -59 -28 -90 -55 -89 -77 2 -12
47 -12 47 24 87 34 38 36 44 36 109 0 84 -6 101 -34 101 -46 0 -64 -26 -72
-101 -6 -64 -9 -70 -28 -67 -29 4 -46 44 -46 109 0 49 -3 58 -32 86 -36 33
-108 83 -121 83 -10 0 1 -136 15 -172 5 -14 31 -40 59 -57 34 -21 49 -37 49
-52 0 -20 -3 -21 -42 -14 -53 10 -96 10 -106 1 -4 -4 10 -23 30 -42 31 -28 45
-34 83 -34 75 0 133 -44 150 -113 10 -40 -22 -49 -47 -14 -22 31 -59 35 -116
15 -34 -13 -35 -12 -68 26 -48 55 -131 228 -150 311 -21 96 -40 131 -101 183
-83 72 -103 150 -63 254 30 79 67 126 150 190 134 105 195 132 266 121 28 -5
34 -10 34 -29 0 -13 -4 -24 -9 -24 -5 0 -23 -11 -39 -25 -32 -27 -47 -76 -36
-119 l6 -25 53 35 c30 20 56 42 59 50 8 21 44 17 51 -6 9 -28 -1 -39 -51 -61
-64 -29 -94 -70 -94 -130 0 -27 4 -49 10 -49 5 0 27 16 49 35 67 60 89 41 51
-44 -11 -24 -20 -55 -20 -70 0 -26 47 -111 62 -111 14 0 78 105 78 128 0 12
-9 40 -20 62 -41 81 -12 118 44 56 30 -31 40 -36 80 -36 64 0 69 19 19 78 -29
34 -53 51 -89 63 -53 17 -67 35 -79 102 -6 33 -5 37 13 37 10 0 32 -10 48 -22
21 -17 40 -22 72 -21 43 2 134 39 139 58 4 12 -111 71 -152 78 -16 3 -48 -1
-70 -9 -57 -20 -65 -18 -106 22 -26 25 -48 37 -78 41 -23 3 -44 10 -47 15 -12
19 31 48 110 74 112 36 192 91 273 185 l68 79 68 0 c79 0 114 14 175 73 49 48
52 64 16 77 -40 16 -57 12 -107 -21 -76 -50 -87 -14 -21 68 27 33 48 46 100
63 76 26 104 59 129 155 20 77 20 75 -15 75 -44 0 -85 -24 -99 -59 -18 -42
-58 -78 -73 -63 -8 8 -6 26 10 69 28 80 33 114 21 158 -12 41 -62 101 -107
127 l-29 17 -6 -80z m-287 -430 c14 -5 31 -22 37 -38 5 -16 36 -47 67 -70 48
-36 56 -46 56 -74 0 -38 -55 -125 -97 -155 -47 -33 -149 -81 -248 -116 -94
-34 -164 -76 -219 -135 -56 -58 -73 -31 -63 103 10 132 24 179 69 230 22 25
45 46 52 46 7 0 23 -11 36 -25 19 -20 33 -25 74 -24 53 0 137 26 143 44 5 15
-83 58 -131 64 -50 7 -55 33 -13 65 l29 21 30 -37 c28 -36 33 -38 88 -38 108
0 115 17 38 91 -42 40 -49 52 -38 59 15 9 46 6 90 -11z m-2368 -516 c29 -31
68 -104 68 -127 0 -8 -19 -25 -43 -39 -23 -14 -51 -34 -61 -46 -11 -12 -22
-21 -27 -21 -7 0 -51 72 -62 101 -3 9 5 33 19 52 13 20 24 47 24 59 0 52 43
63 82 21z m-293 -42 c41 -22 67 -48 57 -58 -4 -4 -33 -1 -66 5 -53 11 -65 11
-95 -4 -36 -17 -85 -85 -85 -117 0 -21 -1 -21 43 -2 20 8 62 15 94 15 39 0 71
7 96 20 49 27 71 25 96 -6 26 -34 29 -111 5 -121 -9 -3 -41 6 -71 21 -58 28
-79 28 -143 -4 -41 -21 -74 -55 -66 -68 7 -11 107 -26 161 -23 141 7 125 12
156 -48 16 -30 49 -73 74 -96 75 -70 57 -88 -52 -51 -41 14 -93 41 -123 65
-43 34 -101 61 -133 61 -5 0 0 -13 10 -30 27 -47 11 -53 -98 -35 -52 9 -137
25 -189 36 -94 19 -95 19 -148 76 -64 69 -64 89 -2 112 34 13 50 26 67 56 24
45 41 135 25 135 -28 0 -90 -37 -123 -72 -54 -60 -71 -36 -37 54 15 40 128 83
195 74 144 -19 158 -19 199 2 49 27 104 27 153 3z m6993 -21 c35 0 39 -3 58
-47 31 -70 30 -107 -6 -144 -34 -36 -80 -62 -94 -54 -16 10 -12 30 10 50 23
21 25 53 6 99 -23 55 -33 52 -71 -23 -26 -52 -35 -83 -35 -120 0 -60 -29 -100
-99 -136 -96 -48 -158 -43 -141 13 26 91 67 169 115 221 29 31 62 75 73 98 26
50 33 54 97 48 28 -3 67 -5 87 -5z m-6368 -191 c76 -51 101 -83 90 -114 -4 -8
-12 -15 -20 -15 -16 0 -151 115 -164 140 -30 56 -1 52 94 -11z m-140 -55 c150
-141 206 -240 226 -396 12 -100 12 -129 1 -147 -11 -17 -3 -22 -145 87 -53 41
-112 97 -133 125 -21 29 -68 84 -104 123 -67 73 -96 122 -86 148 3 8 24 24 46
35 21 11 48 33 60 48 31 42 41 53 47 53 4 0 43 -34 88 -76z m1087 -179 c147
-52 287 -151 412 -290 80 -90 86 -99 132 -222 63 -169 82 -205 154 -291 84
-100 142 -220 170 -352 16 -72 16 -307 0 -326 -13 -16 -55 -19 -63 -5 -3 5 3
20 14 34 38 48 12 153 -39 159 -22 3 -26 10 -36 57 -5 30 -15 56 -21 58 -7 2
-29 -17 -49 -42 -59 -71 -81 -56 -69 45 4 38 2 65 -6 81 -21 41 -73 89 -96 89
-20 0 -22 -6 -29 -79 -8 -88 -2 -107 51 -159 32 -31 52 -87 41 -116 -3 -8 -26
-24 -51 -37 -63 -31 -72 -45 -80 -111 l-7 -58 38 3 c34 2 38 0 36 -20 -2 -20
3 -22 73 -28 56 -6 89 -3 133 9 47 13 72 14 125 7 37 -5 74 -15 82 -22 8 -6
33 -50 55 -98 23 -47 63 -113 89 -146 91 -117 89 -124 -28 -118 -60 4 -97 11
-118 24 -17 11 -47 19 -66 19 -29 0 -43 -8 -77 -45 -25 -28 -41 -54 -41 -70 0
-29 10 -31 51 -9 32 16 69 11 69 -9 0 -7 -34 -43 -75 -80 -84 -77 -100 -114
-72 -172 19 -41 84 -92 98 -78 5 5 12 56 16 113 5 90 9 107 29 127 25 25 64
31 64 11 -1 -7 -7 -24 -15 -38 -24 -42 -18 -69 24 -111 21 -22 46 -39 54 -39
23 0 40 64 33 119 -19 129 -19 137 -1 154 26 26 88 22 124 -8 73 -62 104 -200
81 -360 -6 -44 -14 -106 -17 -137 l-5 -58 -104 0 c-59 0 -114 5 -129 12 -21 9
-31 9 -46 0 -24 -15 -139 -16 -176 -1 -15 6 -57 15 -93 19 -76 10 -253 68
-314 104 -50 29 -82 73 -130 177 -48 104 -55 143 -56 295 0 166 -20 247 -86
353 -118 190 -153 280 -156 402 -1 90 17 118 41 60 7 -15 27 -42 44 -59 31
-30 32 -31 56 -13 l23 18 -37 87 c-36 84 -37 87 -20 106 35 38 65 21 65 -37 0
-16 13 -38 36 -59 46 -44 64 -44 64 0 0 44 15 54 44 27 36 -34 136 -55 151
-31 8 12 -31 86 -60 116 -19 19 -35 24 -73 24 -55 0 -89 19 -79 43 3 9 29 31
56 47 55 34 68 58 49 89 -37 60 -121 24 -151 -64 -11 -32 -20 -40 -54 -50 -23
-7 -57 -22 -76 -34 -43 -26 -52 -17 -48 49 2 38 -3 53 -25 79 -28 34 -77 64
-88 54 -15 -16 -5 -165 15 -224 19 -54 20 -66 9 -100 -10 -29 -10 -48 -1 -83
15 -60 14 -66 -7 -66 -23 0 -38 16 -100 110 -28 41 -69 95 -91 119 -31 33 -48
66 -67 125 -30 93 -42 190 -26 200 6 4 35 8 64 9 59 3 168 44 168 63 0 24 -65
37 -124 23 -59 -13 -86 -8 -86 16 0 31 36 54 78 48 33 -4 51 1 106 32 36 20
66 41 66 46 0 5 -18 21 -41 36 -42 28 -40 28 -111 -2 -26 -10 -24 27 2 50 44
40 63 84 58 136 -3 27 -7 52 -10 55 -3 2 -17 -1 -32 -7 -25 -12 -29 -9 -76 42
-27 30 -49 61 -50 70 0 30 73 75 103 63 8 -3 19 -22 26 -43 7 -25 26 -51 55
-75 l44 -36 11 33 c13 38 8 54 -33 115 -21 31 -26 46 -18 54 29 29 174 30 253
3z m4571 -32 c21 -19 23 -33 5 -33 -18 0 -49 34 -40 43 9 10 14 9 35 -10z
m-5044 -221 c50 -45 53 -50 63 -116 12 -77 2 -116 -30 -116 -21 0 -31 18 -31
59 0 30 -18 50 -62 69 -26 11 -28 16 -28 66 0 61 7 86 24 86 6 0 35 -22 64
-48z m-134 -176 c14 -24 45 -59 70 -80 40 -33 46 -42 46 -76 0 -49 -15 -58
-48 -31 -54 43 -93 55 -141 42 -31 -8 -47 -9 -55 -1 -13 13 -20 141 -8 158 11
17 82 41 99 35 7 -3 23 -24 37 -47z m4400 -217 c59 -69 77 -138 51 -189 -16
-30 -19 -32 -53 -24 -21 4 -61 7 -89 6 -49 -1 -53 0 -53 21 0 13 14 33 34 49
28 23 36 37 41 75 14 106 24 116 69 62z m-2350 -8 c17 -11 56 -29 87 -40 31
-12 64 -30 73 -40 9 -10 26 -56 37 -102 17 -65 20 -100 16 -159 -10 -116 -20
-139 -96 -217 -38 -39 -81 -89 -96 -112 -28 -42 -34 -46 -101 -56 -42 -6 -104
-38 -104 -54 0 -4 19 -11 42 -15 48 -8 68 -21 68 -46 0 -9 -18 -60 -39 -113
-22 -53 -47 -121 -55 -152 -12 -40 -21 -55 -34 -54 -25 1 -136 173 -161 249
-28 86 -27 133 8 205 31 67 47 83 109 115 39 21 44 21 67 6 15 -10 46 -16 80
-16 53 0 59 3 102 43 61 58 53 71 -43 65 -97 -6 -103 -2 -77 59 11 26 26 60
32 76 12 31 19 32 68 12 19 -8 43 -15 52 -15 17 0 101 65 101 78 0 4 -25 20
-55 37 -54 29 -56 29 -84 12 -16 -9 -34 -17 -40 -17 -15 0 -14 30 4 64 29 55
17 101 -42 152 -21 18 -33 36 -29 43 11 18 76 13 110 -8z m-2084 -36 c27 -14
60 -25 73 -25 40 0 58 -32 68 -116 9 -80 7 -94 -15 -94 -35 0 -148 76 -168
113 -12 23 -29 127 -22 138 7 12 9 12 64 -16z m1912 -27 c9 -25 28 -62 42 -83
27 -39 35 -85 14 -85 -6 0 -23 14 -38 31 -29 35 -48 34 -94 -2 -29 -23 -34
-39 -10 -39 8 0 40 -23 70 -51 61 -58 67 -83 34 -137 -17 -28 -23 -32 -35 -22
-8 7 -15 22 -15 34 0 11 -8 37 -18 56 -14 29 -27 38 -77 55 l-60 20 0 45 c0
43 2 46 44 67 64 33 79 50 87 102 4 25 9 50 11 54 10 17 29 -2 45 -45z m-285
-143 c31 -31 34 -38 31 -87 -5 -80 -27 -76 -77 15 -23 41 -41 82 -41 91 0 29
49 19 87 -19z m2821 -43 c2 -7 -24 -41 -59 -77 -67 -70 -101 -82 -147 -49 -44
30 -13 82 42 68 28 -7 57 7 104 48 34 29 52 32 60 10z m-2666 -179 c44 -46 60
-77 52 -97 -3 -9 -35 -30 -70 -47 -96 -48 -95 -49 -58 154 8 38 33 35 76 -10z
m2638 -122 c24 -7 25 -10 30 -111 4 -79 11 -117 28 -154 l22 -49 31 29 c60 57
74 116 42 173 -42 72 49 54 92 -18 11 -19 42 -58 68 -87 l49 -53 -16 -98 c-33
-196 -37 -253 -45 -533 -6 -241 -9 -290 -24 -317 -34 -63 -82 -63 -117 1 -11
22 -12 35 -2 72 16 60 15 96 -4 144 -14 36 -19 40 -48 37 -24 -1 -31 2 -30 16
0 9 1 44 2 78 2 60 3 62 57 114 l55 52 0 82 c0 54 -4 81 -12 81 -18 0 -88 -81
-94 -110 -10 -45 -13 -50 -34 -50 -14 0 -27 15 -46 53 -15 28 -40 71 -55 94
-34 49 -36 73 -9 98 40 36 42 121 6 208 -20 46 -32 47 -51 1 -8 -19 -24 -48
-35 -64 -13 -19 -20 -44 -20 -77 0 -77 -10 -82 -69 -39 -28 21 -60 51 -71 66
-29 41 -86 55 -151 39 -64 -17 -78 -5 -53 42 19 38 114 134 195 196 89 68 228
106 309 84z m-3146 -263 c19 -27 12 -38 -25 -38 -31 0 -40 25 -17 48 17 17 25
15 42 -10z m1004 -15 c3 -18 -7 -27 -50 -49 -29 -15 -66 -36 -82 -47 -27 -19
-28 -21 -10 -34 10 -8 44 -13 83 -13 64 0 65 1 107 45 23 25 48 45 56 45 16 0
50 -33 67 -67 10 -21 8 -25 -21 -42 -100 -59 -137 -103 -141 -169 -2 -26 0
-27 46 -25 62 4 100 24 127 68 12 19 28 35 35 35 8 0 23 -26 34 -57 33 -92 43
-106 111 -150 76 -50 93 -69 81 -92 -15 -26 -87 -101 -98 -101 -6 0 -27 14
-48 30 -24 19 -49 30 -69 30 -38 0 -117 -38 -166 -79 -29 -24 -33 -32 -22 -43
15 -15 97 -17 185 -4 56 9 57 8 57 -16 0 -14 -10 -33 -21 -44 -12 -10 -39 -43
-61 -71 -21 -29 -46 -53 -54 -53 -9 0 -34 16 -57 35 -22 19 -47 35 -54 35 -25
0 -92 -40 -134 -80 -58 -55 -46 -65 81 -65 109 0 124 -8 95 -51 -17 -27 -48
-44 -130 -75 -59 -22 -66 -31 -85 -105 -16 -65 -32 -72 -74 -32 -54 50 -71
128 -56 261 24 212 24 260 2 334 -67 222 -56 356 48 576 42 88 57 98 145 95
63 -3 70 -5 73 -25z m1678 -124 c54 -56 89 -72 146 -65 59 8 114 -7 129 -36
16 -29 -2 -37 -70 -31 -55 5 -58 4 -84 -27 -33 -39 -34 -48 -1 -60 40 -15 95
-11 143 10 52 24 89 25 119 4 40 -28 81 -134 52 -134 -5 0 -34 12 -63 26 -53
26 -82 27 -115 6 -20 -13 -6 -34 50 -74 38 -29 60 -38 90 -38 28 0 46 -7 64
-25 24 -24 25 -31 23 -118 -2 -50 1 -109 5 -129 7 -32 6 -38 -9 -38 -28 0
-103 61 -114 93 -6 16 -11 44 -11 62 0 34 -21 58 -80 94 -31 18 -90 29 -90 16
0 -2 5 -26 11 -54 8 -41 17 -54 50 -75 21 -15 39 -30 39 -35 0 -28 -91 -21
-125 10 -29 26 -72 40 -101 33 -25 -6 -104 -88 -104 -108 0 -16 198 -14 227 2
31 17 67 15 94 -7 27 -22 20 -28 -41 -33 -26 -2 -40 -11 -57 -37 -24 -35 -31
-81 -13 -81 12 0 38 15 117 68 46 31 58 34 99 29 51 -5 80 -27 71 -51 -5 -13
-23 -16 -84 -16 l-78 -1 -32 -53 c-18 -30 -33 -58 -33 -64 0 -26 105 -30 153
-6 18 10 52 34 76 56 55 48 85 48 119 -2 13 -19 46 -48 74 -64 75 -43 85 -75
57 -179 -12 -45 -25 -120 -30 -167 -20 -217 -74 -351 -124 -310 -33 28 -52 84
-58 173 -3 57 -11 96 -22 113 -19 30 -76 56 -112 52 l-25 -3 21 -27 c12 -15
26 -42 32 -60 6 -18 21 -52 32 -75 16 -32 19 -45 10 -54 -20 -20 -71 0 -100
39 -39 54 -52 62 -100 62 -45 0 -143 -41 -143 -60 0 -5 38 -28 85 -50 47 -22
85 -46 85 -53 0 -6 -7 -21 -15 -31 -29 -38 -19 -46 50 -46 46 0 78 6 105 20
53 27 74 25 100 -7 18 -23 21 -37 17 -79 -5 -46 -39 -134 -53 -134 -3 0 -18 7
-34 15 -38 20 -44 9 -35 -71 6 -56 4 -64 -10 -64 -21 0 -80 43 -131 97 -37 39
-45 43 -90 43 -31 0 -59 -7 -77 -19 -47 -30 -45 -31 130 -80 87 -24 133 -47
133 -66 0 -22 -17 -27 -60 -15 -32 9 -46 8 -69 -5 -38 -19 -70 -19 -76 0 -3 8
-7 21 -9 29 -3 10 -16 11 -50 6 -25 -4 -49 -4 -54 -1 -5 3 -20 30 -32 59 -13
29 -36 62 -51 73 -16 11 -29 27 -29 35 0 7 24 30 53 49 51 34 57 35 98 26 43
-10 134 1 152 19 9 8 -12 60 -24 60 -5 0 -25 11 -45 25 -57 39 -77 34 -162
-45 -42 -39 -87 -73 -99 -76 -58 -15 -70 26 -23 84 36 46 45 86 31 139 -20 72
-35 72 -75 1 -33 -60 -34 -65 -24 -110 8 -34 8 -54 1 -70 -11 -24 -137 -97
-148 -86 -7 7 -27 133 -29 183 -1 25 4 30 36 40 20 5 40 14 44 18 5 5 -11 26
-34 47 -41 38 -42 41 -42 100 0 95 27 131 146 195 29 15 61 40 73 56 24 32 55
38 65 13 3 -9 6 -33 6 -55 0 -26 7 -46 21 -60 24 -24 88 -53 97 -44 3 3 -4 36
-16 73 -26 80 -27 102 -8 102 19 0 52 -43 66 -86 10 -28 23 -40 71 -64 80 -41
99 -40 99 5 0 20 -7 49 -15 64 -20 40 -72 81 -101 81 -34 0 -81 26 -95 52 -10
18 -8 24 7 35 10 7 24 13 31 13 7 0 22 9 33 20 26 26 29 120 4 120 -29 0 -95
-44 -115 -77 -28 -45 -66 -73 -100 -73 -33 0 -49 23 -49 73 0 23 -8 42 -25 60
-34 33 -83 53 -97 39 -15 -15 22 -88 73 -146 l41 -46 -19 -32 c-20 -35 -76
-68 -120 -71 l-28 -2 -6 105 c-3 58 -11 130 -17 160 -6 30 -14 87 -17 125 -3
39 -14 99 -23 135 -25 99 -22 300 5 361 23 51 83 105 178 159 30 17 74 54 97
81 49 58 72 62 114 18z m-783 -466 c70 -35 109 -64 162 -118 143 -145 171
-236 160 -514 -4 -90 -10 -174 -15 -187 -5 -13 -27 -35 -50 -50 -30 -20 -42
-36 -50 -68 -17 -68 -21 -71 -91 -71 -58 0 -64 2 -67 21 -2 12 6 39 17 60 12
21 21 46 21 56 0 21 -78 84 -89 72 -19 -21 -32 -87 -29 -154 2 -71 2 -72 -32
-98 -19 -15 -54 -44 -76 -64 -38 -35 -74 -49 -74 -29 0 4 17 44 37 87 36 76
37 83 38 193 l0 113 55 17 c30 10 67 25 83 35 32 22 88 96 81 108 -3 4 -34 8
-69 8 -57 0 -68 -3 -98 -30 -19 -16 -39 -30 -45 -30 -16 0 -24 35 -17 77 13
75 11 73 79 73 49 0 69 5 90 21 24 19 86 113 86 132 0 15 -49 6 -101 -17 -29
-14 -56 -23 -61 -20 -17 11 -6 32 32 63 37 29 40 36 40 79 0 44 -24 160 -36
171 -8 8 -41 -31 -79 -94 -35 -57 -36 -63 -30 -125 5 -50 3 -70 -9 -85 -14
-19 -16 -19 -57 22 -41 42 -75 61 -87 49 -3 -4 -1 -32 6 -63 9 -42 21 -66 46
-92 27 -28 36 -47 41 -86 7 -58 -5 -109 -27 -113 -8 -2 -26 13 -39 33 -13 19
-32 38 -42 41 -29 9 -72 -5 -108 -36 l-34 -30 27 -24 c16 -14 52 -30 85 -37
68 -15 107 -39 128 -79 20 -39 20 -169 0 -218 -24 -56 -78 -132 -95 -132 -14
0 -70 80 -70 99 0 5 11 31 25 58 17 33 22 57 18 77 -7 33 -75 106 -99 106 -17
0 -17 -36 -2 -155 5 -33 -22 -23 -51 20 l-27 40 -87 0 c-107 0 -124 -11 -81
-56 35 -37 66 -54 117 -63 20 -4 37 -12 37 -19 0 -7 -21 -25 -46 -41 -55 -35
-56 -60 -1 -64 25 -2 49 4 71 17 40 25 74 27 105 5 78 -55 46 -209 -58 -280
-28 -19 -38 -21 -49 -11 -23 19 -105 145 -157 242 -74 138 -99 171 -226 301
-73 74 -119 129 -119 141 0 15 13 26 49 41 46 19 52 25 85 96 44 96 72 136 96
136 12 0 37 -29 76 -90 31 -49 60 -90 65 -90 10 0 15 21 28 104 13 89 1 119
-56 143 -18 7 -33 20 -33 29 0 41 90 164 121 164 14 0 19 -7 19 -26 0 -44 70
-172 83 -153 8 12 47 162 47 182 0 13 -13 38 -30 55 -16 18 -30 38 -30 46 0
18 37 63 63 78 36 19 177 46 250 47 63 1 76 -3 160 -46z m-4435 -170 c19 -36
35 -121 28 -146 -8 -35 -31 -34 -45 1 -7 16 -29 39 -50 50 -49 28 -64 46 -57
70 13 39 107 58 124 25z m212 -61 c28 -31 50 -62 50 -69 0 -19 -48 -65 -63
-60 -6 2 -15 23 -19 46 -5 28 -19 56 -43 82 -37 42 -42 55 -22 62 25 8 49 -7
97 -61z m-356 -94 c51 -74 45 -90 -31 -86 -46 2 -59 7 -61 20 -6 29 28 130 41
125 7 -2 29 -29 51 -59z m1893 -252 c76 -13 183 -29 238 -35 55 -7 141 -25
190 -41 50 -16 102 -32 118 -35 43 -8 34 -38 -25 -87 -29 -24 -83 -73 -120
-110 -37 -38 -70 -68 -73 -68 -4 0 -23 12 -42 28 -73 55 -201 26 -256 -57 -15
-22 -27 -45 -27 -49 0 -9 191 -9 250 0 23 3 25 0 22 -32 -1 -19 -4 -64 -5 -99
l-2 -65 -55 -13 c-64 -16 -103 -52 -119 -109 -12 -44 -5 -84 15 -84 43 0 110
53 165 132 14 19 19 20 31 10 23 -19 41 -96 34 -143 -6 -39 -5 -41 25 -52 l31
-12 -5 -60 c-6 -60 14 -132 41 -149 17 -10 72 126 72 178 0 58 -12 81 -50 101
-59 31 -27 67 64 75 75 6 80 20 31 77 -19 23 -35 48 -35 56 0 29 30 47 76 47
28 0 47 5 50 13 6 17 -33 126 -54 150 -12 13 -31 17 -87 17 -39 0 -74 3 -78 6
-13 13 24 62 106 141 99 95 134 110 217 92 29 -6 64 -9 79 -6 15 3 56 -1 92
-9 35 -8 120 -19 189 -24 129 -9 269 -39 330 -70 19 -10 57 -38 83 -62 l49
-43 -12 -65 c-18 -93 -17 -92 -41 -85 -19 6 -20 4 -13 -30 l7 -38 -34 6 c-19
3 -55 11 -81 18 -42 11 -53 10 -88 -6 -22 -10 -39 -23 -37 -29 7 -20 92 -45
157 -45 80 -1 122 -13 173 -48 45 -32 88 -89 80 -109 -4 -10 -16 -12 -44 -8
-46 8 -69 -7 -69 -45 0 -14 -17 -50 -37 -80 -32 -46 -37 -61 -35 -102 1 -36
-2 -49 -12 -49 -19 0 -114 77 -121 99 -3 12 6 37 25 67 25 40 30 58 30 108 -1
34 -6 74 -13 89 l-12 28 -30 -31 c-26 -27 -31 -41 -35 -98 -4 -58 -8 -67 -25
-67 -15 0 -27 18 -52 79 -37 91 -53 111 -100 127 -42 14 -133 3 -133 -16 0 -8
28 -43 63 -79 51 -54 68 -66 94 -66 38 0 103 -51 103 -81 0 -24 -12 -24 -84 2
l-59 20 -46 -23 c-25 -14 -46 -30 -46 -37 0 -22 131 -52 196 -45 l55 6 77 -61
c75 -59 109 -103 93 -118 -4 -4 -25 2 -46 15 -21 12 -54 22 -72 22 -35 0 -100
-28 -105 -46 -2 -6 26 -25 63 -42 52 -24 72 -29 91 -21 13 5 44 9 68 9 58 0
92 -29 140 -122 49 -93 58 -183 27 -268 -34 -94 -70 -174 -81 -178 -5 -2 -28
21 -50 50 -23 29 -57 73 -77 97 -39 49 -40 76 -6 148 16 34 16 36 -13 90 -28
54 -92 113 -122 113 -21 0 -8 -71 24 -137 24 -48 25 -73 3 -73 -16 0 -108 60
-113 73 -2 7 0 35 6 64 12 59 0 113 -34 157 -31 39 -46 32 -65 -29 l-17 -54
27 -40 c31 -44 31 -77 1 -74 -11 1 -42 10 -68 20 l-48 18 -50 -27 c-62 -35
-77 -35 -137 2 -32 19 -103 43 -208 70 -87 23 -186 53 -219 66 -86 36 -219 77
-383 118 -141 35 -197 61 -254 114 -16 14 -28 34 -28 44 0 11 10 20 28 24 92
19 140 52 161 107 15 40 14 47 -9 47 -33 0 -33 25 -1 71 17 23 31 48 31 56 0
18 -70 17 -116 -2 -31 -13 -36 -13 -41 2 -4 11 10 31 45 63 59 54 66 74 60
170 -5 95 -17 105 -69 55 -60 -59 -70 -84 -67 -169 2 -61 0 -78 -16 -95 -21
-23 -45 -28 -47 -8 -1 6 0 28 1 48 1 28 -6 45 -31 73 -31 36 -77 66 -100 66
-8 0 -9 -11 -5 -36 11 -55 -16 -41 -66 36 -35 53 -54 71 -101 95 -66 34 -77
57 -55 113 18 49 51 55 72 14 9 -17 28 -40 43 -52 16 -12 38 -38 50 -58 l22
-36 16 37 c15 37 18 103 6 147 -4 14 -22 35 -41 47 -71 46 -72 49 -31 95 53
61 135 101 241 120 128 22 148 22 307 -6z m5967 -408 c18 -90 -10 -112 -110
-87 -49 13 -57 34 -24 64 11 10 22 26 26 37 7 23 39 38 74 35 21 -2 26 -9 34
-49z m-3091 -82 c47 -20 73 -53 103 -131 25 -67 26 -76 22 -225 -5 -161 -20
-230 -51 -230 -8 0 -56 66 -107 146 -65 102 -100 148 -119 156 -32 12 -127 6
-143 -10 -20 -20 45 -78 94 -85 48 -6 99 -50 81 -68 -18 -18 -75 -26 -113 -16
-98 25 -110 21 -141 -48 -24 -51 -26 -135 -4 -135 28 0 69 27 113 75 24 25 54
50 68 55 41 16 92 12 102 -7 14 -28 4 -42 -41 -54 -54 -14 -85 -44 -92 -86 -3
-18 -7 -49 -10 -68 -5 -30 -3 -35 13 -35 25 0 112 47 128 68 7 9 16 29 19 45
8 32 30 57 51 57 8 0 26 -11 39 -25 21 -20 25 -34 25 -85 0 -55 -7 -75 -69
-203 -38 -78 -80 -171 -95 -207 -33 -81 -67 -126 -89 -117 -25 9 -52 59 -92
169 -53 144 -110 262 -173 358 -65 100 -102 179 -102 219 0 17 14 49 35 77 19
27 46 70 59 95 13 25 32 52 41 59 10 8 34 39 55 70 56 83 112 130 155 130 30
0 37 -5 55 -40 11 -21 29 -44 40 -50 26 -14 120 -31 131 -24 13 8 -15 57 -66
114 -25 28 -43 55 -40 61 9 14 81 11 118 -5z m-2455 -46 c29 -28 52 -54 52
-58 0 -20 -28 -32 -75 -32 -63 0 -90 17 -82 51 6 23 43 89 50 89 2 0 27 -23
55 -50z m1327 -11 c58 -53 89 -103 82 -132 -17 -69 -45 -132 -60 -132 -20 0
-177 184 -177 207 0 25 68 98 91 98 11 0 40 -19 64 -41z m-2347 -13 c16 -8 41
-38 56 -67 26 -48 30 -51 42 -34 7 10 15 23 17 29 8 19 27 -8 63 -86 27 -59
34 -85 34 -139 0 -80 -8 -86 -74 -54 -36 18 -55 21 -77 15 -33 -10 -75 -38
-104 -70 -19 -21 -19 -22 0 -36 24 -18 113 -18 145 1 31 18 101 19 121 3 37
-31 88 -138 65 -138 -28 0 -118 -25 -161 -45 -61 -27 -99 -31 -131 -12 -52 31
-104 83 -118 118 -27 68 -21 99 30 159 69 81 76 110 50 217 -25 103 -26 121
-10 138 19 18 18 18 52 1z m-100 -35 c2 -22 -8 -56 -32 -105 -33 -67 -36 -77
-30 -134 5 -45 4 -62 -5 -62 -6 0 -14 8 -17 18 -19 60 -54 119 -86 145 -63 51
-59 80 14 92 28 5 54 20 82 46 49 46 70 46 74 0z m-2568 14 c15 -18 4 -160
-15 -190 -7 -12 -38 -29 -71 -39 -33 -10 -71 -27 -86 -37 -14 -11 -33 -19 -41
-19 -21 0 -67 39 -67 56 0 8 18 42 41 76 33 47 52 65 93 83 28 13 64 37 80 54
33 34 48 38 66 16z m6589 -227 c38 -48 112 -108 131 -108 31 0 12 -125 -27
-170 -38 -46 -53 -40 -53 24 0 49 -3 57 -36 86 -53 46 -69 38 -67 -34 2 -45 8
-67 33 -103 36 -55 37 -74 9 -120 -27 -43 -43 -38 -49 18 l-5 44 -54 3 -54 3
7 -43 c4 -24 22 -68 41 -100 38 -62 43 -92 19 -126 -41 -58 -213 -104 -222
-59 -2 10 10 62 27 115 42 137 60 219 75 357 14 126 30 173 81 234 21 24 35
31 64 31 33 0 42 -6 80 -52z m1884 -28 c4 -19 28 -55 52 -80 44 -45 65 -84 65
-121 0 -26 -23 -24 -80 8 -44 25 -51 26 -89 15 -23 -7 -41 -19 -41 -26 0 -21
90 -57 139 -55 33 2 47 -2 57 -16 20 -27 17 -59 -6 -80 -18 -16 -22 -16 -60
-1 -22 9 -65 16 -95 16 -51 0 -59 3 -100 41 -25 23 -49 39 -53 35 -9 -9 -7
-89 3 -133 11 -48 -8 -42 -76 22 -54 51 -61 55 -107 55 -41 0 -56 -6 -95 -36
-26 -20 -47 -40 -47 -43 0 -4 29 -16 63 -28 62 -20 65 -20 98 -2 50 27 86 24
120 -10 16 -16 29 -37 29 -47 0 -14 -6 -15 -42 -9 -66 12 -91 9 -111 -16 -14
-17 -15 -24 -5 -30 29 -18 87 -20 133 -5 39 14 51 14 73 4 34 -17 35 -42 2
-46 -55 -6 -70 -14 -85 -42 -23 -44 -19 -50 34 -50 46 0 51 3 71 35 31 50 54
61 80 35 11 -11 20 -25 20 -30 0 -28 -34 -70 -83 -102 -29 -20 -88 -74 -130
-119 -42 -46 -92 -92 -111 -103 -34 -18 -35 -18 -65 3 -33 24 -75 85 -69 102
2 7 24 19 48 28 62 23 62 42 -1 66 -62 25 -76 39 -58 61 10 13 25 15 74 9 70
-7 106 5 126 42 11 20 11 26 -1 33 -30 19 -102 11 -148 -16 -52 -30 -73 -22
-54 21 7 14 12 34 12 44 0 20 -36 71 -50 71 -16 0 -31 -79 -24 -128 4 -35 2
-57 -10 -79 -30 -59 -54 -49 -121 47 l-28 40 22 49 c11 27 21 57 21 65 0 32
-22 116 -31 116 -12 0 -69 -115 -69 -140 0 -39 -30 -35 -76 12 -32 32 -43 49
-38 62 8 21 228 186 334 250 108 65 255 127 319 134 38 4 68 15 105 40 73 49
119 73 135 70 8 -2 19 -19 24 -38z m-6998 4 c17 -7 45 -54 45 -77 0 -9 -26
-23 -65 -36 -97 -31 -98 -31 -93 33 3 30 10 62 17 70 14 16 66 21 96 10z
m1530 -26 c33 -15 32 -38 -5 -73 -23 -22 -32 -26 -44 -16 -20 17 -28 58 -16
81 12 23 28 25 65 8z m2224 -7 c21 -21 121 -166 121 -176 0 -3 25 -55 55 -116
30 -61 55 -119 55 -129 0 -10 -15 -28 -34 -39 -20 -13 -43 -40 -54 -65 -26
-54 -47 -76 -74 -76 -19 0 -20 4 -13 75 l7 74 -41 43 c-26 28 -43 39 -49 33
-18 -19 -54 -144 -47 -165 4 -12 20 -37 37 -55 16 -19 28 -42 26 -52 -4 -21
-184 -114 -205 -106 -17 7 -7 266 12 303 7 14 31 60 54 103 l41 78 0 114 c0
107 1 115 26 144 30 36 56 39 83 12z m2473 -59 c69 -45 61 -78 -16 -67 -63 8
-76 19 -76 60 0 51 23 52 92 7z m-2737 -18 c78 -43 95 -65 95 -122 0 -55 -10
-75 -72 -139 -50 -50 -51 -52 -46 -102 9 -89 -23 -96 -65 -14 -14 26 -35 67
-48 90 l-24 42 23 28 c54 68 65 102 58 180 -3 44 -2 73 4 73 5 0 39 -16 75
-36z m1959 -69 c14 -11 46 -15 111 -15 57 0 95 -4 103 -12 23 -23 8 -177 -19
-194 -6 -3 -52 -15 -102 -25 -51 -11 -122 -26 -158 -35 -54 -13 -76 -14 -119
-5 -29 6 -68 9 -86 5 -29 -5 -34 -3 -34 13 0 10 7 29 16 42 14 19 22 22 53 17
105 -18 137 -18 186 1 28 10 50 25 50 33 0 7 -20 24 -45 36 -34 17 -55 22 -84
17 -33 -5 -38 -4 -34 13 1 10 21 30 42 44 21 15 45 39 53 53 15 30 38 34 67
12z m403 -139 c26 -23 27 -26 12 -41 -24 -24 -77 -11 -85 20 -12 50 27 61 73
21z m1988 -43 c11 -17 40 -64 64 -102 24 -39 47 -71 52 -71 19 0 9 86 -16 131
-13 26 -21 49 -18 53 4 3 23 6 44 6 40 0 60 -15 84 -60 8 -16 35 -43 60 -60
57 -39 58 -63 6 -90 -52 -26 -79 -62 -87 -115 -3 -25 -11 -49 -18 -54 -19 -16
-166 -62 -176 -56 -25 15 10 65 56 79 11 3 26 16 32 29 16 33 23 97 10 97 -26
0 -132 -67 -156 -98 -22 -28 -27 -46 -27 -91 0 -57 0 -57 -69 -124 -39 -38
-75 -66 -83 -63 -9 4 -13 28 -13 87 0 79 1 82 34 113 19 17 46 40 61 51 14 11
27 29 28 40 2 16 -5 21 -32 23 -26 3 -40 -3 -62 -24 -35 -33 -48 -25 -56 32
-5 38 -4 40 56 79 38 24 61 45 59 55 -4 19 -54 25 -84 9 -47 -25 -73 20 -38
69 26 38 78 30 143 -21 31 -24 78 -57 105 -72 l49 -29 -6 39 c-7 41 -33 75
-84 106 -40 25 -42 44 -5 58 42 15 65 9 87 -26z m-837 -100 c53 -7 66 -28 57
-92 -8 -50 -25 -91 -49 -110 -13 -11 -19 -5 -40 42 -13 30 -38 65 -54 77 -17
13 -34 30 -37 38 -9 23 35 64 60 57 11 -3 39 -9 63 -12z m-1134 -19 c9 -3 16
-14 16 -24 0 -21 -86 -103 -103 -97 -17 5 -21 52 -7 77 9 16 51 44 77 50 1 0
8 -3 17 -6z m1605 -8 c18 -21 6 -38 -64 -92 -35 -27 -64 -52 -64 -56 -1 -4 11
-11 26 -14 18 -5 39 0 69 15 51 27 76 24 88 -10 18 -51 5 -59 -89 -59 -47 0
-85 -4 -85 -8 0 -4 18 -25 39 -46 39 -38 41 -38 82 -28 23 6 47 8 54 6 31 -12
34 -129 5 -192 -31 -67 -69 -67 -70 1 0 47 -32 29 -63 -35 -37 -78 -68 -76
-80 4 -10 66 -35 105 -83 128 -24 12 -47 19 -52 16 -11 -6 2 -96 17 -124 5
-10 31 -36 56 -56 50 -41 78 -86 69 -110 -7 -18 -25 -20 -70 -7 -24 7 -42 4
-75 -11 -24 -11 -73 -21 -108 -24 -49 -3 -78 -12 -128 -39 -104 -57 -127 -50
-207 64 -66 94 -71 122 -23 151 17 11 38 20 46 20 23 0 81 -66 81 -94 0 -34
20 -76 36 -76 8 0 16 12 20 28 11 53 12 54 46 47 18 -4 41 -9 51 -11 24 -7 22
22 -6 71 -22 38 -25 40 -82 46 -62 6 -105 22 -105 40 0 18 84 100 129 127 25
14 109 66 186 115 77 49 151 97 165 105 13 8 45 34 70 57 70 65 98 77 119 51z
m-2325 -35 c10 -15 -4 -40 -26 -47 -29 -9 -40 8 -22 34 16 23 39 29 48 13z
m496 -21 c23 -23 24 -48 7 -180 -17 -127 -24 -137 -92 -145 -78 -10 -165 24
-165 65 0 20 5 22 79 34 34 6 71 31 71 47 0 15 -78 49 -110 49 -17 0 -48 -9
-70 -20 -46 -24 -71 -25 -109 -6 -71 37 -60 55 64 109 146 64 287 85 325 47z
m420 -2 c25 -13 47 -31 49 -42 3 -17 -2 -18 -40 -13 -50 7 -95 -17 -124 -65
l-16 -28 46 0 c25 0 58 6 73 14 39 20 95 29 131 21 37 -8 111 -79 135 -129 19
-41 9 -76 -24 -76 -13 0 -23 14 -35 50 -9 28 -25 55 -36 60 -18 10 -19 7 -19
-46 0 -51 4 -61 35 -95 19 -22 35 -45 35 -53 0 -20 -40 -146 -56 -178 -29 -57
-94 -73 -94 -23 0 12 -11 39 -25 59 -30 44 -30 53 -5 86 11 14 20 39 20 57 0
33 -18 83 -30 83 -4 0 -19 -25 -34 -56 -42 -86 -74 -85 -83 3 -6 52 -22 77
-65 99 -37 19 -38 19 -38 -18 0 -84 11 -108 61 -140 86 -57 91 -103 11 -92
-43 5 -49 3 -76 -25 -36 -38 -27 -51 36 -58 35 -4 49 0 77 21 37 28 79 34 99
14 23 -23 14 -91 -18 -140 -40 -60 -91 -94 -170 -112 -169 -40 -199 -12 -175
170 7 55 18 112 24 127 6 16 11 55 11 88 0 106 37 232 91 314 61 91 120 145
157 145 15 0 48 -10 72 -22z m-1966 -116 c36 -57 146 -279 210 -424 67 -153
69 -173 22 -323 -19 -60 -41 -140 -49 -176 -32 -140 -107 -278 -163 -300 -50
-19 -89 10 -199 146 -65 80 -131 148 -375 386 -100 97 -108 116 -108 279 l0
135 39 37 c47 45 81 56 116 37 40 -21 65 -66 72 -129 7 -54 23 -90 41 -90 4 0
27 32 50 71 53 87 49 110 -23 147 -63 31 -69 48 -29 84 45 40 75 36 133 -16
26 -24 62 -46 80 -50 40 -8 89 -8 89 0 0 19 -74 103 -100 114 -55 23 -32 70
35 70 23 0 53 8 70 20 43 29 62 25 89 -18z m-1085 -68 c49 -41 37 -64 -32 -64
-79 0 -136 35 -121 74 5 12 21 16 64 16 48 0 64 -5 89 -26z m2199 6 c43 -27
54 -57 42 -122 -13 -69 6 -178 31 -178 20 0 49 66 49 110 0 89 32 92 74 9 33
-68 33 -90 -4 -154 -24 -42 -28 -57 -21 -81 12 -42 37 -88 55 -103 13 -11 17
-9 26 14 5 14 10 59 10 99 0 47 5 79 14 92 25 33 40 2 49 -99 14 -144 12 -159
-31 -254 -44 -95 -87 -260 -98 -370 -6 -71 -37 -153 -57 -153 -7 0 -37 28 -68
62 -34 38 -60 59 -67 54 -18 -11 -15 -110 4 -150 17 -34 14 -66 -6 -66 -6 0
-29 17 -53 39 -72 65 -111 75 -180 46 -44 -18 -83 -19 -90 -2 -3 6 -28 67 -56
134 -28 67 -69 160 -92 205 -23 46 -71 148 -106 228 -73 163 -75 190 -33 302
26 71 54 107 98 125 44 18 86 3 107 -38 21 -40 19 -57 -12 -93 -34 -40 -53
-87 -53 -128 0 -50 11 -61 46 -48 52 20 74 49 74 97 0 36 3 43 20 43 26 0 60
-55 60 -96 0 -18 -9 -51 -20 -75 -23 -52 -26 -107 -6 -134 12 -16 16 -17 30
-6 9 7 16 25 16 40 0 14 5 33 10 41 9 13 14 11 31 -10 19 -22 21 -33 16 -101
-6 -70 -4 -78 17 -98 12 -11 26 -21 30 -21 10 0 56 101 56 124 0 10 -15 33
-34 50 -46 44 -59 71 -42 85 10 8 22 7 49 -4 48 -20 107 -20 107 0 0 20 -115
95 -146 95 -26 0 -42 15 -80 73 -33 52 -32 71 4 62 48 -13 134 -17 143 -8 14
14 -30 73 -71 97 -25 15 -51 20 -95 19 -53 -1 -63 2 -96 30 -21 18 -47 39 -60
48 -18 12 -20 19 -11 35 13 25 108 76 182 98 30 9 66 25 80 36 34 27 114 27
158 0z m-2026 -173 c54 -61 96 -143 81 -158 -9 -9 -25 2 -68 48 -31 34 -74 73
-95 88 -43 30 -50 48 -22 64 28 18 65 3 104 -42z m2409 -68 c21 -21 23 -60 2
-66 -17 -6 -88 61 -79 75 11 19 54 14 77 -9z m842 -23 c48 -20 69 -44 57 -65
-15 -30 -115 -67 -167 -62 -9 1 -13 19 -13 55 0 45 4 58 22 70 28 20 59 20
101 2z m172 -168 c21 -24 52 -74 71 -113 19 -38 52 -104 74 -145 60 -111 90
-215 90 -310 0 -43 -4 -82 -10 -85 -5 -3 -27 3 -49 14 -55 28 -114 37 -129 19
-9 -12 -4 -22 28 -53 56 -54 52 -69 -22 -103 -72 -33 -87 -47 -94 -94 -7 -43
12 -118 30 -118 26 0 75 69 92 130 19 67 58 110 101 110 21 0 24 -4 20 -22 -3
-13 -11 -44 -18 -70 -15 -56 -9 -67 25 -44 36 23 63 20 68 -7 2 -12 0 -54 -6
-94 l-9 -71 66 -134 c67 -133 76 -161 57 -173 -20 -12 -117 73 -124 108 -3 12
-7 34 -11 49 -6 32 -61 98 -81 98 -7 0 -16 -15 -20 -35 -5 -28 -1 -40 20 -66
49 -58 31 -74 -59 -50 -50 13 -62 21 -73 46 -28 64 -39 80 -71 102 -46 31 -51
29 -51 -15 0 -29 6 -44 26 -61 14 -12 24 -27 21 -34 -7 -22 -60 -20 -103 3
-47 26 -88 23 -141 -10 -41 -25 -41 -39 0 -67 41 -28 72 -29 128 -3 95 43 150
7 60 -39 -45 -23 -85 -66 -76 -80 3 -6 17 -11 29 -11 59 0 88 14 146 72 54 54
62 59 97 56 51 -4 55 -29 8 -51 -19 -9 -40 -28 -45 -43 -11 -27 -13 -74 -5
-74 20 0 108 55 143 89 23 23 50 41 60 41 54 0 140 -121 163 -231 16 -74 -4
-220 -36 -271 -90 -139 -429 -460 -468 -445 -18 7 -37 82 -37 143 0 58 37 199
57 220 20 20 28 18 63 -16 22 -21 40 -30 65 -30 18 0 36 4 39 9 10 16 -53 90
-94 111 -38 19 -41 24 -38 58 4 51 30 54 74 8 24 -24 44 -36 63 -36 35 0 91
19 91 31 0 5 -18 26 -40 46 -63 60 -54 74 46 66 57 -5 62 -4 98 27 36 32 37
34 19 52 -33 32 -87 34 -146 5 -29 -14 -76 -29 -106 -32 l-54 -7 6 40 c6 31 3
45 -14 66 -27 34 -35 33 -59 -6 -22 -37 -26 -85 -9 -122 14 -30 0 -72 -36
-106 -28 -26 -39 -21 -66 31 -11 22 -31 45 -44 51 -31 14 -95 2 -95 -18 0 -29
61 -92 106 -109 47 -18 84 -56 84 -87 0 -10 -11 -46 -25 -78 -14 -33 -32 -89
-40 -125 -15 -62 -14 -67 5 -105 14 -27 20 -59 20 -102 0 -55 -5 -72 -37 -127
-50 -85 -137 -151 -200 -151 -85 0 -216 68 -248 130 -12 24 -13 37 -4 72 6 24
14 111 18 193 7 126 13 167 40 259 29 98 101 272 182 442 35 74 41 164 12 164
-41 -1 -63 -39 -63 -109 0 -27 -5 -53 -11 -56 -5 -4 -28 5 -51 20 -36 24 -46
26 -97 20 -56 -6 -59 -5 -107 33 -75 59 -104 131 -66 165 40 36 88 22 142 -43
39 -47 85 -80 110 -80 5 0 10 13 10 29 0 40 -42 87 -93 104 -52 17 -58 39 -21
78 32 33 57 36 141 14 58 -15 138 -12 149 6 8 14 -58 49 -93 49 -64 0 -83 25
-41 54 27 19 82 20 145 4 42 -10 51 -9 90 12 23 12 43 26 43 31 0 13 -135 89
-160 89 -4 0 -40 -29 -79 -65 -69 -63 -100 -79 -102 -52 -1 6 0 29 1 50 2 46
-17 97 -36 97 -24 0 -37 -43 -39 -126 -2 -82 -18 -124 -54 -144 -42 -22 -49
15 -25 139 7 34 7 34 -16 18 -37 -26 -60 -69 -60 -112 0 -82 -63 -116 -94 -51
-44 92 13 206 117 231 15 4 49 27 75 50 l47 43 -29 11 c-31 12 -53 9 -103 -17
-62 -31 -71 28 -13 86 55 55 112 46 190 -29 46 -45 50 -46 50 -18 0 26 -16 57
-47 91 -31 33 -23 48 27 48 35 0 44 -5 77 -48 21 -27 58 -65 83 -85 l45 -37 3
50 c6 105 -64 170 -169 156 -52 -7 -99 0 -99 16 0 5 11 24 24 41 30 41 37 70
29 124 -7 55 -26 56 -75 6 -42 -43 -68 -98 -68 -142 0 -48 -15 -75 -60 -106
-25 -17 -51 -48 -66 -77 -36 -71 -47 -65 -59 36 -4 31 -12 59 -18 63 -15 9
-62 -51 -76 -97 -13 -43 -51 -76 -76 -66 -35 13 -8 242 42 344 29 62 105 141
159 167 23 11 74 21 124 25 75 5 91 10 130 38 25 18 67 48 94 67 61 44 97 45
137 6 16 -16 29 -34 29 -40 0 -7 -26 -40 -58 -74 -108 -116 -126 -157 -72
-157 66 0 130 51 130 103 0 8 7 20 15 27 12 10 18 6 35 -22 30 -50 26 -97 -15
-165 -38 -62 -47 -110 -19 -99 9 3 20 6 25 6 6 0 23 15 40 32 24 27 32 31 47
22 25 -16 26 -51 3 -117 -20 -59 -20 -59 -1 -97 11 -22 20 -51 20 -65 0 -44
23 -23 49 44 l25 63 -28 79 c-40 112 -23 146 35 67 26 -37 94 -86 104 -76 8 7
-16 104 -33 132 -20 35 -66 55 -128 55 -40 1 -42 3 -63 50 -31 74 -31 95 0 99
17 2 41 -9 76 -38 58 -46 63 -47 63 -20 0 52 -72 132 -131 145 -41 9 -119 88
-119 121 0 29 12 35 123 68 48 14 100 34 115 45 39 30 56 26 97 -21z m645
-109 c25 -11 77 -24 116 -28 55 -5 81 -13 113 -35 66 -46 67 -95 1 -76 -38 11
-47 6 -114 -52 -58 -51 -47 -68 45 -68 68 0 73 2 106 35 46 46 70 45 90 -2 11
-28 14 -61 11 -128 -6 -133 -38 -193 -178 -335 -60 -60 -113 -110 -118 -110
-5 0 -17 17 -28 38 -10 20 -38 71 -61 113 -24 42 -43 82 -43 89 0 8 10 24 21
36 18 19 20 30 15 67 -7 49 -45 129 -62 134 -17 5 -54 -94 -54 -142 0 -60 -16
-70 -70 -42 -51 26 -54 31 -70 117 -6 36 -25 98 -41 138 -31 79 -38 161 -18
206 26 56 250 86 339 45z m-2709 -354 c22 -49 46 -121 54 -160 8 -38 26 -104
41 -145 27 -73 27 -81 31 -345 3 -249 2 -273 -15 -305 -23 -43 -54 -60 -108
-60 -47 0 -105 37 -195 125 -60 59 -74 92 -99 233 -19 110 30 328 99 436 17
28 31 59 31 69 0 11 16 71 36 134 34 108 37 114 60 111 21 -2 32 -18 65 -93z
m-2075 -12 c-10 -88 -23 -107 -76 -114 -25 -3 -62 -12 -83 -19 -36 -14 -40
-13 -53 5 -19 26 -18 52 6 91 21 33 90 74 126 74 10 0 26 5 34 10 8 5 23 10
34 10 17 0 18 -5 12 -57z m4612 -199 c23 -15 28 -34 13 -62 -14 -27 -22 -152
-10 -152 24 0 68 42 74 70 10 45 25 47 57 9 66 -79 85 -199 47 -305 -18 -49
-23 -91 -28 -249 -3 -104 -10 -196 -14 -202 -13 -21 -36 -15 -41 10 -29 151
-43 205 -72 278 -80 202 -96 271 -101 441 -3 86 -3 164 1 173 7 18 34 14 74
-11z m-2008 -218 c25 0 56 3 70 7 20 6 33 3 53 -14 l28 -21 -63 -66 c-62 -65
-62 -65 -40 -80 30 -20 28 -42 -11 -87 -24 -27 -38 -37 -50 -32 -20 7 -99 163
-124 245 -17 52 -17 55 1 68 16 11 24 11 55 -4 20 -9 56 -16 81 -16z m608 4
c27 -36 27 -33 2 -114 -22 -71 -36 -80 -78 -50 -27 18 -30 76 -7 131 30 71 49
79 83 33z m-228 -174 c12 -23 9 -29 -54 -98 -36 -40 -65 -77 -63 -83 2 -5 30
-11 61 -13 73 -4 103 13 111 65 10 58 23 83 44 83 25 0 77 -59 124 -140 21
-36 54 -91 72 -123 19 -32 68 -95 109 -139 134 -146 152 -206 102 -350 -14
-42 -26 -92 -26 -110 0 -52 -20 -72 -61 -64 -19 3 -45 13 -57 22 l-22 15 36
65 c31 55 35 70 29 104 -5 30 -11 40 -25 40 -30 0 -79 -49 -92 -92 -14 -48
-31 -57 -60 -32 -27 24 -60 98 -52 117 3 8 19 21 36 28 17 7 46 28 65 46 28
29 33 41 33 81 0 26 -3 57 -6 70 -15 56 -89 -5 -108 -89 -14 -59 -25 -68 -51
-42 -15 14 -16 28 -11 84 l6 67 -46 56 c-64 77 -82 73 -109 -21 -9 -33 18 -87
69 -136 32 -30 46 -52 46 -70 0 -34 -18 -35 -66 -2 -39 26 -85 32 -128 15 -14
-5 -26 -16 -26 -24 0 -20 85 -74 134 -86 76 -19 109 -42 140 -98 16 -31 24
-58 20 -62 -5 -5 -27 -5 -49 1 -42 11 -115 -5 -122 -26 -4 -14 74 -61 115 -70
18 -4 54 -1 82 6 47 12 53 11 110 -16 33 -16 79 -31 102 -34 56 -8 71 -35 63
-116 -4 -32 -13 -75 -21 -95 -19 -44 -87 -116 -135 -140 -64 -33 -187 -60
-286 -62 -108 -2 -127 7 -180 85 -67 100 -78 143 -79 337 -1 96 -5 274 -9 395
-6 203 -5 228 14 325 21 99 66 208 133 318 25 41 68 45 88 8z m604 -484 c66
-36 76 -54 50 -89 -29 -38 -41 -39 -60 -2 -9 19 -30 46 -45 62 -58 58 -27 75
55 29z m1581 -45 c8 -13 27 -48 43 -77 21 -43 34 -56 62 -66 l35 -11 -3 -59
c-2 -32 -9 -62 -15 -67 -7 -4 -30 -5 -52 -1 -22 4 -136 8 -253 9 -141 1 -216
5 -224 13 -15 15 2 39 88 128 54 56 87 80 154 112 99 48 142 53 165 19z
m-3799 -98 c42 -31 56 -49 78 -103 43 -109 38 -113 -84 -68 l-75 28 -7 49 c-4
28 -10 65 -14 84 -5 27 -3 37 11 47 20 15 20 15 91 -37z m539 -151 c56 -66
104 -143 132 -211 25 -61 25 -63 8 -110 -15 -42 -16 -55 -4 -115 7 -37 13
-105 14 -152 0 -47 5 -102 9 -122 8 -36 7 -38 -16 -38 -30 0 -97 47 -131 92
-44 57 -109 218 -144 353 -44 168 -45 180 -13 180 18 0 33 -12 56 -47 66 -102
94 -115 94 -43 0 65 -41 142 -85 161 -18 7 -37 19 -41 25 -8 14 48 69 70 69 8
0 31 -19 51 -42z m2283 -591 c16 -18 23 -60 14 -75 -5 -7 -31 -21 -58 -31 -27
-11 -63 -25 -81 -32 -50 -20 -50 -4 -1 49 24 26 53 60 62 75 19 29 47 35 64
14z m-1925 -1419 c10 -54 -19 -394 -33 -403 -17 -10 -39 8 -50 40 -6 19 -12
89 -13 157 -2 123 -2 123 31 181 38 65 57 72 65 25z"/>
</g>
</svg>
